<svg version="1.1" xmlns="http://www.w3.org/2000/svg" xmlns:xlink="http://www.w3.org/1999/xlink" viewBox="0 0 172 172"><defs><linearGradient x1="87.12875" y1="149.40708" x2="83.05092" y2="129.20425" gradientUnits="userSpaceOnUse" id="color-1"><stop offset="0.178" stop-color="#29abe2"></stop><stop offset="0.204" stop-color="#2799d3"></stop><stop offset="0.269" stop-color="#2471b1"></stop><stop offset="0.336" stop-color="#204f95"></stop><stop offset="0.404" stop-color="#1e3580"></stop><stop offset="0.475" stop-color="#1c2370"></stop><stop offset="0.548" stop-color="#1b1867"></stop><stop offset="0.628" stop-color="#1b1464"></stop></linearGradient><radialGradient cx="66.693" cy="66.81842" r="91.69392" gradientUnits="userSpaceOnUse" id="color-2"><stop offset="0" stop-color="#29abe2"></stop><stop offset="0.109" stop-color="#29a6de"></stop><stop offset="0.233" stop-color="#2799d3"></stop><stop offset="0.365" stop-color="#2582c0"></stop><stop offset="0.501" stop-color="#2262a5"></stop><stop offset="0.64" stop-color="#1e3a83"></stop><stop offset="0.75" stop-color="#1b1464"></stop></radialGradient><radialGradient cx="65.72192" cy="65.34925" r="55.52375" gradientUnits="userSpaceOnUse" id="color-3"><stop offset="0.19" stop-color="#2cb4ff" stop-opacity="0.967"></stop><stop offset="0.372" stop-color="#2bb0f3" stop-opacity="0.554"></stop><stop offset="0.608" stop-color="#29abe2" stop-opacity="0"></stop></radialGradient><radialGradient cx="121.4643" cy="103.83191" r="35.76511" gradientUnits="userSpaceOnUse" id="color-4"><stop offset="0.073" stop-color="#29abe2"></stop><stop offset="0.211" stop-color="#2a95d4" stop-opacity="0.821"></stop><stop offset="0.497" stop-color="#2c6bb8" stop-opacity="0.473"></stop><stop offset="0.733" stop-color="#2d4ca3" stop-opacity="0.217"></stop><stop offset="0.907" stop-color="#2e3897" stop-opacity="0.06"></stop><stop offset="1" stop-color="#2e3192" stop-opacity="0"></stop></radialGradient><radialGradient cx="59.5765" cy="57.59133" r="18.32517" gradientUnits="userSpaceOnUse" id="color-5"><stop offset="0.174" stop-color="#49c6f2" stop-opacity="0.97"></stop><stop offset="0.263" stop-color="#48c5f2" stop-opacity="0.949"></stop><stop offset="0.37" stop-color="#46c4f1" stop-opacity="0.889"></stop><stop offset="0.487" stop-color="#43c1ef" stop-opacity="0.788"></stop><stop offset="0.61" stop-color="#3ebded" stop-opacity="0.648"></stop><stop offset="0.738" stop-color="#38b8ea" stop-opacity="0.468"></stop><stop offset="0.869" stop-color="#31b2e6" stop-opacity="0.25"></stop><stop offset="1" stop-color="#29abe2" stop-opacity="0"></stop></radialGradient></defs><g fill="none" fill-rule="nonzero" stroke="none" stroke-width="1" stroke-linecap="butt" stroke-linejoin="miter" stroke-miterlimit="10" stroke-dasharray="" stroke-dashoffset="0" font-family="none" font-weight="none" font-size="none" text-anchor="none" style="mix-blend-mode: normal"><path d="M0,172v-172h172v172z" fill="none"></path><g><path d="M138.847,156.82458c-14.70327,0.25884 -29.18174,-3.63214 -41.7745,-11.22658c-4.43324,-2.76851 -8.551,-6.01273 -12.28008,-9.675c-0.26697,-0.23257 -0.38304,-0.59396 -0.3014,-0.93848c0.08164,-0.34453 0.34752,-0.61541 0.69046,-0.70346c0.34294,-0.08804 0.70643,0.02126 0.94394,0.28385c3.63008,3.56468 7.6385,6.72239 11.954,9.417c24.52075,15.26858 52.69292,11.2445 67.29858,7.49275c0.50116,-0.10918 0.99886,0.19781 1.12621,0.69467c0.12735,0.49686 -0.16132,1.0054 -0.65321,1.15075c-8.82146,2.28201 -17.89227,3.45919 -27.004,3.5045z" fill="#adadad"></path><path d="M80.324,142.25833c1.47633,2.451 9.90075,1.075 10.4275,-1.40108c0.258,-1.22908 -1.64475,-1.72358 -4.18533,-5.66525c-1.6985,-2.63733 -2.0855,-4.33942 -2.83442,-4.257c-0.67008,0.07167 -0.82058,1.47992 -1.81675,4.96292c-1.40825,4.92708 -2.09267,5.53267 -1.591,6.36042z" fill="url(#color-1)"></path><path d="M103.70167,121.39975c-3.33932,3.45901 -7.01215,6.57972 -10.965,9.31667c-2.68795,1.90987 -5.48797,3.65689 -8.385,5.23167c-6.11889,-0.73301 -12.1316,-2.17606 -17.91667,-4.3c-24.51,-8.815 -41.35167,-28.52333 -44.8275,-49.52167c-0.06527,-0.33171 -0.11312,-0.66661 -0.14333,-1.00333c-0.39287,-2.60883 -0.57263,-5.24532 -0.5375,-7.88333c-0.00666,-0.31099 0.00531,-0.6221 0.03583,-0.93167c0.05597,-1.59529 0.19951,-3.18629 0.43,-4.76583c2.58,-19.6725 16.84167,-41.45917 40.24083,-46.225c20.17417,-4.085 39.0225,6.16333 50.4175,20.17417c3.0546,3.78908 5.60788,7.95621 7.59667,12.39833c1.85728,4.25792 3.09998,8.7582 3.69083,13.36583c2.06703,20.09987 -5.16555,40.04225 -19.63667,54.14417z" fill="url(#color-2)"></path><circle cx="17.731" cy="17.984" transform="scale(3.58333,3.58333)" r="9.874" fill="url(#color-3)"></circle><path d="M103.70167,121.39975c-3.33932,3.45901 -7.01215,6.57972 -10.965,9.31667c-1.25417,0.60917 -2.54417,1.14667 -3.83417,1.68417c-0.75967,-2.75917 -7.48558,-28.8315 9.42417,-49.09167c6.56487,-7.7076 15.26964,-13.29337 25.01167,-16.04975c2.0659,20.09867 -5.16659,40.03948 -19.63667,54.14058z" fill="url(#color-4)"></path><path d="M76.41817,45.07117c3.95958,7.83317 -3.54033,18.8555 -11.68525,23.46367c-7.60383,4.3 -19.65458,5.19942 -24.338,-1.04992c-5.31767,-7.095 0.24725,-21.53225 10.363,-26.875c8.56775,-4.50425 21.77592,-3.21783 25.66025,4.46125z" fill="url(#color-5)"></path><path d="M81.6355,136.90842c-0.49123,-0.00871 -0.89537,-0.38939 -0.9334,-0.87922c-0.03804,-0.48984 0.30249,-0.92833 0.78649,-1.01278l5.19225,-0.80983c0.5185,-0.08114 1.00461,0.27341 1.08575,0.79192c0.08114,0.5185 -0.27341,1.00461 -0.79192,1.08575l-5.19225,0.80983c-0.04835,0.00982 -0.09758,0.01463 -0.14692,0.01433z" fill="#adadad"></path></g></g></svg>