<svg version="1.1" xmlns="http://www.w3.org/2000/svg" xmlns:xlink="http://www.w3.org/1999/xlink" viewBox="0 0 172 172"><defs><linearGradient x1="87.79167" y1="53.75" x2="87.79167" y2="146.91667" gradientUnits="userSpaceOnUse" id="color-1"><stop offset="0.799" stop-color="#708075"></stop><stop offset="0.96" stop-color="#adb4af"></stop><stop offset="1" stop-color="#bdc2be"></stop></linearGradient><linearGradient x1="87.79167" y1="46.58333" x2="87.79167" y2="139.75" gradientUnits="userSpaceOnUse" id="color-2"><stop offset="0.006" stop-color="#8cab95"></stop><stop offset="0.017" stop-color="#a8c6b1"></stop><stop offset="0.028" stop-color="#bfdbc8"></stop><stop offset="0.038" stop-color="#c2dcca"></stop><stop offset="0.114" stop-color="#d3e4d8"></stop><stop offset="0.209" stop-color="#dee9e2"></stop><stop offset="0.342" stop-color="#e5ece7"></stop><stop offset="0.712" stop-color="#e7ede9"></stop></linearGradient><linearGradient x1="87.79167" y1="46.58333" x2="87.79167" y2="25.08333" gradientUnits="userSpaceOnUse" id="color-3"><stop offset="0.865" stop-color="#2cc759"></stop><stop offset="0.909" stop-color="#42d46c"></stop><stop offset="1" stop-color="#78f59b"></stop></linearGradient></defs><g fill="none" fill-rule="nonzero" stroke="none" stroke-width="1" stroke-linecap="butt" stroke-linejoin="miter" stroke-miterlimit="10" stroke-dasharray="" stroke-dashoffset="0" font-family="none" font-weight="none" font-size="none" text-anchor="none" style="mix-blend-mode: normal"><path d="M0,172v-172h172v172z" fill="none"></path><g><g><path d="M32.25,146.91667h111.08333c3.95804,0 7.16667,-3.20863 7.16667,-7.16667v-86h-125.41667v86c0,3.95804 3.20863,7.16667 7.16667,7.16667z" fill="url(#color-1)"></path><path d="M32.25,139.75h111.08333c3.95804,0 7.16667,-3.20863 7.16667,-7.16667v-86h-125.41667v86c0,3.95804 3.20863,7.16667 7.16667,7.16667z" fill="url(#color-2)"></path><path d="M150.5,32.25v14.33333h-125.41667v-14.33333c0.01181,-3.95314 3.21353,-7.15486 7.16667,-7.16667h111.08333c3.95314,0.01181 7.15486,3.21353 7.16667,7.16667z" fill="url(#color-3)"></path><rect x="23" y="17" transform="scale(3.58333,3.58333)" width="3" height="3" rx="1" ry="0" fill="#abccb3"></rect><rect x="19" y="17" transform="scale(3.58333,3.58333)" width="3" height="3" rx="1" ry="0" fill="#abccb3"></rect><rect x="27" y="17" transform="scale(3.58333,3.58333)" width="3" height="3" rx="1" ry="0" fill="#abccb3"></rect><rect x="31" y="17" transform="scale(3.58333,3.58333)" width="3" height="3" rx="1" ry="0" fill="#6edb8d"></rect><rect x="35" y="17" transform="scale(3.58333,3.58333)" width="3" height="3" rx="1" ry="0" fill="#6edb8d"></rect><rect x="11" y="21" transform="scale(3.58333,3.58333)" width="3" height="3" rx="1" ry="0" fill="#abccb3"></rect><rect x="15" y="21" transform="scale(3.58333,3.58333)" width="3" height="3" rx="1" ry="0" fill="#abccb3"></rect><rect x="19" y="21" transform="scale(3.58333,3.58333)" width="3" height="3" rx="1" ry="0" fill="#abccb3"></rect><rect x="23" y="21" transform="scale(3.58333,3.58333)" width="3" height="3" rx="1" ry="0" fill="#abccb3"></rect><rect x="27" y="21" transform="scale(3.58333,3.58333)" width="3" height="3" rx="1" ry="0" fill="#abccb3"></rect><rect x="31" y="21" transform="scale(3.58333,3.58333)" width="3" height="3" rx="1" ry="0" fill="#6edb8d"></rect><rect x="35" y="21" transform="scale(3.58333,3.58333)" width="3" height="3" rx="1" ry="0" fill="#6edb8d"></rect><rect x="11" y="25" transform="scale(3.58333,3.58333)" width="3" height="3" rx="1" ry="0" fill="#abccb3"></rect><rect x="15" y="25" transform="scale(3.58333,3.58333)" width="3" height="3" rx="1" ry="0" fill="#abccb3"></rect><rect x="23" y="25" transform="scale(3.58333,3.58333)" width="3" height="3" rx="1" ry="0" fill="#abccb3"></rect><rect x="27" y="25" transform="scale(3.58333,3.58333)" width="3" height="3" rx="1" ry="0" fill="#abccb3"></rect><rect x="31" y="25" transform="scale(3.58333,3.58333)" width="3" height="3" rx="1" ry="0" fill="#6edb8d"></rect><rect x="35" y="25" transform="scale(3.58333,3.58333)" width="3" height="3" rx="1" ry="0" fill="#6edb8d"></rect><rect x="11" y="29" transform="scale(3.58333,3.58333)" width="3" height="3" rx="1" ry="0" fill="#abccb3"></rect><rect x="15" y="29" transform="scale(3.58333,3.58333)" width="3" height="3" rx="1" ry="0" fill="#abccb3"></rect><rect x="15" y="33" transform="scale(3.58333,3.58333)" width="3" height="3" rx="1" ry="0" fill="#abccb3"></rect><rect x="19" y="33" transform="scale(3.58333,3.58333)" width="3" height="3" rx="1" ry="0" fill="#abccb3"></rect><rect x="23" y="33" transform="scale(3.58333,3.58333)" width="3" height="3" rx="1" ry="0" fill="#abccb3"></rect><rect x="19" y="29" transform="scale(3.58333,3.58333)" width="3" height="3" rx="1" ry="0" fill="#abccb3"></rect><rect x="23" y="29" transform="scale(3.58333,3.58333)" width="3" height="3" rx="1" ry="0" fill="#abccb3"></rect><rect x="11" y="33" transform="scale(3.58333,3.58333)" width="3" height="3" rx="1" ry="0" fill="#abccb3"></rect><rect x="27" y="29" transform="scale(3.58333,3.58333)" width="3" height="3" rx="1" ry="0" fill="#abccb3"></rect><rect x="31" y="29" transform="scale(3.58333,3.58333)" width="3" height="3" rx="1" ry="0" fill="#6edb8d"></rect><path d="M86,94.95833c0,6.92657 -5.6151,12.54167 -12.54167,12.54167c-6.92657,0 -12.54167,-5.6151 -12.54167,-12.54167c0,-6.92657 5.6151,-12.54167 12.54167,-12.54167c6.92657,0 12.54167,5.6151 12.54167,12.54167" fill="#c45c39"></path><rect x="35" y="29" transform="scale(3.58333,3.58333)" width="3" height="3" rx="1" ry="0" fill="#6edb8d"></rect><rect x="19" y="25" transform="scale(3.58333,3.58333)" width="3" height="3" rx="1" ry="0" fill="#abccb3"></rect></g></g></g></svg>