<svg xmlns="http://www.w3.org/2000/svg" xmlns:xlink="http://www.w3.org/1999/xlink" width="48" height="48" data-name="Слой 1" viewBox="0 0 48 48"><defs><linearGradient id="ReC8iBerVtjvWxkluS9tDn" x1="145.589" x2="153.462" y1="-20.536" y2="-23.927" data-name="Безымянный градиент 178" gradientTransform="rotate(13.513 -176.75 -480.057)" gradientUnits="userSpaceOnUse"><stop offset=".293" stop-color="red"></stop><stop offset=".428" stop-color="#ea0000"></stop><stop offset=".708" stop-color="#b40000"></stop><stop offset="1" stop-color="#760000"></stop></linearGradient><linearGradient id="ReC8iBerVtjvWxkluS9tDy" x1="41.615" x2="43.837" y1="20.858" y2="21.925" xlink:href="#ReC8iBerVtjvWxkluS9tDd"></linearGradient><linearGradient id="ReC8iBerVtjvWxkluS9tDc" x1="60.412" x2="49.731" y1="11.712" y2="28.723" data-name="Безымянный градиент 104" gradientTransform="matrix(-1 0 0 1 68.765 0)" gradientUnits="userSpaceOnUse"><stop offset="0" stop-color="#ffef56"></stop><stop offset="1" stop-color="#fc6115"></stop></linearGradient><linearGradient id="ReC8iBerVtjvWxkluS9tDx" x1="7.531" x2="10.575" y1="39.335" y2="40.797" xlink:href="#ReC8iBerVtjvWxkluS9tDd"></linearGradient><linearGradient id="ReC8iBerVtjvWxkluS9tDh" x1="28.394" x2="35.416" y1="13.492" y2="18.437" xlink:href="#ReC8iBerVtjvWxkluS9tDb"></linearGradient><linearGradient id="ReC8iBerVtjvWxkluS9tDi" x1="39.412" x2="28.731" y1="11.712" y2="28.723" xlink:href="#ReC8iBerVtjvWxkluS9tDc"></linearGradient><linearGradient id="ReC8iBerVtjvWxkluS9tDd" x1="76.281" x2="88.042" y1="66.518" y2="65.509" data-name="Безымянный градиент 288" gradientTransform="rotate(-17.315 -103.86 296.932)" gradientUnits="userSpaceOnUse"><stop offset=".188" stop-color="#1e380b"></stop><stop offset=".598" stop-color="#97ca00"></stop><stop offset=".648" stop-color="#8fc001"></stop><stop offset=".733" stop-color="#78a504"></stop><stop offset=".843" stop-color="#537908"></stop><stop offset=".927" stop-color="#33530c"></stop></linearGradient><linearGradient id="ReC8iBerVtjvWxkluS9tDj" x1="73.055" x2="85.27" y1="68.696" y2="72.841" xlink:href="#ReC8iBerVtjvWxkluS9tDd"></linearGradient><linearGradient id="ReC8iBerVtjvWxkluS9tDk" x1="77.682" x2="87.78" y1="79.549" y2="75.624" xlink:href="#ReC8iBerVtjvWxkluS9tDd"></linearGradient><linearGradient id="ReC8iBerVtjvWxkluS9tDe" x1="-113.157" x2="-100.59" y1="-41.587" y2="-41.198" data-name="Безымянный градиент 169" gradientTransform="scale(-1 1) rotate(-13.54 198.55 -293.62)" gradientUnits="userSpaceOnUse"><stop offset="0" stop-color="#8e0000"></stop><stop offset=".293" stop-color="red"></stop><stop offset=".428" stop-color="#ea0000"></stop><stop offset=".708" stop-color="#b40000"></stop><stop offset="1" stop-color="#760000"></stop></linearGradient><linearGradient id="ReC8iBerVtjvWxkluS9tDl" x1="148.833" x2="157.294" y1="-35.904" y2="-35.643" gradientTransform="rotate(13.513 -176.75 -480.057)" xlink:href="#ReC8iBerVtjvWxkluS9tDe"></linearGradient><linearGradient id="ReC8iBerVtjvWxkluS9tDm" x1="-109.283" x2="-104.834" y1="-30.809" y2="-30.671" xlink:href="#ReC8iBerVtjvWxkluS9tDe"></linearGradient><linearGradient id="ReC8iBerVtjvWxkluS9tDb" x1="49.394" x2="56.416" y1="13.492" y2="18.437" data-name="Безымянный градиент 53" gradientTransform="matrix(-1 0 0 1 68.765 0)" gradientUnits="userSpaceOnUse"><stop offset="0" stop-color="#993712"></stop><stop offset="1" stop-color="#fc520e"></stop></linearGradient><linearGradient id="ReC8iBerVtjvWxkluS9tDo" x1="-33.259" x2="-18.028" y1="23.287" y2="38.056" gradientTransform="rotate(156.2 .494 32.862)" xlink:href="#ReC8iBerVtjvWxkluS9tDd"></linearGradient><linearGradient id="ReC8iBerVtjvWxkluS9tDf" x1="2.464" x2="4.772" y1="30.781" y2="31.902" data-name="Безымянный градиент 5" gradientUnits="userSpaceOnUse"><stop offset=".108" stop-color="#8e0000"></stop><stop offset=".625" stop-color="red"></stop><stop offset=".696" stop-color="#ea0000"></stop><stop offset=".845" stop-color="#b40000"></stop><stop offset="1" stop-color="#760000"></stop></linearGradient><linearGradient id="ReC8iBerVtjvWxkluS9tDp" x1="13.912" x2="15.619" y1="32.972" y2="33.801" xlink:href="#ReC8iBerVtjvWxkluS9tDf"></linearGradient><linearGradient id="ReC8iBerVtjvWxkluS9tDq" x1="24.166" x2="26.473" y1="32.447" y2="33.568" xlink:href="#ReC8iBerVtjvWxkluS9tDf"></linearGradient><linearGradient id="ReC8iBerVtjvWxkluS9tDr" x1="30.351" x2="32.658" y1="24.719" y2="25.84" xlink:href="#ReC8iBerVtjvWxkluS9tDf"></linearGradient><linearGradient id="ReC8iBerVtjvWxkluS9tDs" x1="42.405" x2="44.037" y1="35.595" y2="36.388" xlink:href="#ReC8iBerVtjvWxkluS9tDf"></linearGradient><linearGradient id="ReC8iBerVtjvWxkluS9tDt" x1="15.469" x2="17.005" y1="43.598" y2="44.344" xlink:href="#ReC8iBerVtjvWxkluS9tDf"></linearGradient><linearGradient id="ReC8iBerVtjvWxkluS9tDu" x1="21.817" x2="21.356" y1="36.259" y2="41.896" xlink:href="#ReC8iBerVtjvWxkluS9tDd"></linearGradient><linearGradient id="ReC8iBerVtjvWxkluS9tDv" x1="39.451" x2="41.528" y1="39.837" y2="43.134" xlink:href="#ReC8iBerVtjvWxkluS9tDd"></linearGradient><linearGradient id="ReC8iBerVtjvWxkluS9tDw" x1="18.178" x2="20.552" y1="27.365" y2="31.453" xlink:href="#ReC8iBerVtjvWxkluS9tDd"></linearGradient><radialGradient id="ReC8iBerVtjvWxkluS9tDg" cx="51.88" cy="-.721" r="52.942" data-name="Безымянный градиент 191" gradientTransform="rotate(-5.272 35.894 17.009)" xlink:href="#ReC8iBerVtjvWxkluS9tDa"></radialGradient><radialGradient id="ReC8iBerVtjvWxkluS9tDa" cx="72.791" cy="1.209" r="52.942" data-name="Безымянный градиент 15" gradientTransform="scale(-1 1) rotate(-5.28 1.473 762.85)" gradientUnits="userSpaceOnUse"><stop offset="0" stop-color="#934a0c"></stop><stop offset=".106" stop-color="#ff7e00"></stop><stop offset=".186" stop-color="#ffeb00"></stop><stop offset=".234" stop-color="#ffef45"></stop><stop offset=".284" stop-color="#fff287"></stop><stop offset=".298" stop-color="#fff27e"></stop><stop offset=".322" stop-color="#fff065"></stop><stop offset=".351" stop-color="#ffee3c"></stop><stop offset=".386" stop-color="#ffeb04"></stop><stop offset=".388" stop-color="#ffeb00"></stop><stop offset=".545" stop-color="#ff7e00"></stop><stop offset=".93" stop-color="#6d3913"></stop></radialGradient></defs><path fill="url(#ReC8iBerVtjvWxkluS9tDa)" d="M23.5,16.7A9.927,9.927,0,0,1,21.3,22.077c-1.681.809-5.485.458-9.588-1.005-4.258-1.528-7.5-3.765-8.141-5.481,0-.241.014-.481.037-.73.017-.179.033-.358.059-.527A9.987,9.987,0,0,1,23.5,16.7Z"></path><path fill="url(#ReC8iBerVtjvWxkluS9tDb)" d="M21.464,21.616a1.479,1.479,0,0,1-.812.829c-1.623.815-5.287.476-9.236-.973-4.1-1.513-7.211-3.738-7.826-5.452a1.432,1.432,0,0,1-.045-.988,1,1,0,0,1,.141-.268c.967-1.458,5.238-1.3,9.907.412,4.519,1.662,7.844,4.208,7.935,5.954A1.2,1.2,0,0,1,21.464,21.616Z"></path><path fill="url(#ReC8iBerVtjvWxkluS9tDc)" d="M11.329,21.707c-4.112-1.519-7.316-3.77-7.974-5.6a1.674,1.674,0,0,1-.042-1.167,1.167,1.167,0,0,1,.165-.315c1.045-1.576,5.431-1.438,10.2.315,4.594,1.69,8,4.287,8.1,6.171a1.44,1.44,0,0,1-.077.585h0a1.723,1.723,0,0,1-.935.971,5.836,5.836,0,0,1-2.535.456A21.13,21.13,0,0,1,11.329,21.707Zm9.9-.172a.938.938,0,0,0,.051-.392c-.074-1.44-3-3.978-7.771-5.732-5.007-1.842-8.819-1.7-9.624-.492a.716.716,0,0,0-.1.2,1.193,1.193,0,0,0,.043.822c.6,1.674,3.758,3.855,7.677,5.3,3.8,1.395,7.433,1.79,9.041.982a1.241,1.241,0,0,0,.684-.685Z"></path><path fill="url(#ReC8iBerVtjvWxkluS9tDg)" d="M24.27,16.7a10.013,10.013,0,0,0,1.29,4.069,9.871,9.871,0,0,0,.9,1.312c1.682.809,5.486.458,9.588-1.005,4.258-1.528,7.5-3.765,8.141-5.481,0-.241-.014-.481-.037-.73-.017-.179-.033-.358-.059-.527A9.987,9.987,0,0,0,24.27,16.7Z"></path><path fill="url(#ReC8iBerVtjvWxkluS9tDh)" d="M26.3,21.616a1.473,1.473,0,0,0,.811.829c1.623.815,5.288.476,9.236-.973,4.1-1.513,7.211-3.738,7.827-5.452a1.437,1.437,0,0,0,.044-.988,1,1,0,0,0-.141-.268c-.966-1.458-5.238-1.3-9.907.412-4.519,1.662-7.844,4.208-7.934,5.954A1.18,1.18,0,0,0,26.3,21.616Z"></path><path fill="url(#ReC8iBerVtjvWxkluS9tDi)" d="M29.535,23.125A5.828,5.828,0,0,1,27,22.669a1.725,1.725,0,0,1-.936-.971h0a1.458,1.458,0,0,1-.077-.585c.1-1.884,3.5-4.481,8.1-6.171,4.769-1.753,9.155-1.891,10.2-.315a1.167,1.167,0,0,1,.165.315,1.674,1.674,0,0,1-.042,1.167c-.657,1.829-3.861,4.08-7.974,5.6A21.13,21.13,0,0,1,29.535,23.125Zm-3-1.59a1.244,1.244,0,0,0,.684.685c1.609.808,5.24.413,9.041-.982,3.919-1.447,7.077-3.628,7.677-5.3a1.193,1.193,0,0,0,.043-.822.714.714,0,0,0-.1-.2c-.806-1.213-4.618-1.35-9.624.492-4.77,1.754-7.7,4.292-7.772,5.732a.938.938,0,0,0,.051.392Z"></path><polygon fill="#ff7e00" points="14.115 37.325 15.282 37.734 16.28 37.004 16.252 38.24 17.254 38.963 16.07 39.319 15.692 40.496 14.988 39.48 13.752 39.483 14.501 38.5 14.115 37.325"></polygon><polygon fill="#ff8100" points="14.144 37.354 15.285 37.754 16.262 37.04 16.234 38.249 17.215 38.957 16.057 39.305 15.686 40.456 14.998 39.462 13.788 39.466 14.521 38.504 14.144 37.354"></polygon><polygon fill="#ff8400" points="14.172 37.384 15.289 37.774 16.243 37.076 16.217 38.259 17.176 38.951 16.043 39.291 15.681 40.417 15.007 39.445 13.825 39.448 14.541 38.507 14.172 37.384"></polygon><polygon fill="#f80" points="14.201 37.413 15.292 37.795 16.225 37.112 16.199 38.268 17.136 38.945 16.029 39.277 15.675 40.377 15.017 39.427 13.861 39.431 14.562 38.511 14.201 37.413"></polygon><polygon fill="#ff8c00" points="14.23 37.442 15.295 37.815 16.207 37.149 16.181 38.277 17.097 38.938 16.015 39.263 15.67 40.338 15.027 39.41 13.898 39.413 14.582 38.515 14.23 37.442"></polygon><polygon fill="#ff9000" points="14.258 37.471 15.299 37.835 16.189 37.185 16.164 38.287 17.057 38.932 16.002 39.249 15.664 40.298 15.037 39.392 13.934 39.395 14.602 38.519 14.258 37.471"></polygon><polygon fill="#ff9300" points="14.287 37.5 15.302 37.856 16.17 37.221 16.146 38.296 17.018 38.926 15.988 39.235 15.659 40.259 15.046 39.375 13.971 39.378 14.622 38.522 14.287 37.5"></polygon><polygon fill="#ff9700" points="14.316 37.53 15.305 37.876 16.152 37.257 16.128 38.305 16.979 38.919 15.974 39.221 15.653 40.219 15.056 39.357 14.007 39.36 14.643 38.526 14.316 37.53"></polygon><polygon fill="#ff9b00" points="14.344 37.559 15.309 37.896 16.134 37.293 16.111 38.315 16.939 38.913 15.96 39.207 15.648 40.18 15.066 39.34 14.044 39.343 14.663 38.53 14.344 37.559"></polygon><polygon fill="#ff9e00" points="14.373 37.588 15.312 37.917 16.115 37.329 16.093 38.324 16.9 38.907 15.947 39.193 15.642 40.14 15.075 39.322 14.08 39.325 14.683 38.533 14.373 37.588"></polygon><polygon fill="#ffa200" points="14.401 37.617 15.315 37.937 16.097 37.366 16.075 38.334 16.86 38.9 15.933 39.179 15.637 40.101 15.085 39.305 14.117 39.308 14.704 38.537 14.401 37.617"></polygon><polygon fill="#ffa600" points="14.43 37.646 15.319 37.957 16.079 37.402 16.058 38.343 16.821 38.894 15.919 39.165 15.631 40.061 15.095 39.287 14.153 39.29 14.724 38.541 14.43 37.646"></polygon><polygon fill="#fa0" points="14.459 37.676 15.322 37.978 16.061 37.438 16.04 38.352 16.782 38.888 15.906 39.151 15.626 40.022 15.105 39.27 14.19 39.272 14.744 38.545 14.459 37.676"></polygon><polygon fill="#ffae00" points="14.487 37.705 15.325 37.998 16.042 37.474 16.022 38.362 16.742 38.881 15.892 39.137 15.62 39.982 15.114 39.252 14.226 39.255 14.764 38.548 14.487 37.705"></polygon><polygon fill="#ffb100" points="14.516 37.734 15.329 38.018 16.024 37.51 16.005 38.371 16.703 38.875 15.878 39.123 15.614 39.943 15.124 39.235 14.263 39.237 14.785 38.552 14.516 37.734"></polygon><polygon fill="#ffb500" points="14.545 37.763 15.332 38.039 16.006 37.546 15.987 38.38 16.664 38.869 15.864 39.109 15.609 39.903 15.134 39.217 14.299 39.22 14.805 38.556 14.545 37.763"></polygon><polygon fill="#ffb900" points="14.573 37.792 15.336 38.059 15.987 37.582 15.969 38.39 16.624 38.863 15.851 39.095 15.603 39.864 15.143 39.2 14.336 39.202 14.825 38.56 14.573 37.792"></polygon><polygon fill="#ffbc00" points="14.602 37.821 15.339 38.079 15.969 37.619 15.952 38.399 16.585 38.856 15.837 39.081 15.598 39.824 15.153 39.182 14.372 39.185 14.845 38.563 14.602 37.821"></polygon><polygon fill="#ffc000" points="14.63 37.851 15.342 38.1 15.951 37.655 15.934 38.409 16.545 38.85 15.823 39.067 15.592 39.785 15.163 39.165 14.409 39.167 14.866 38.567 14.63 37.851"></polygon><polygon fill="#ffc500" points="14.659 37.88 15.346 38.12 15.933 37.691 15.916 38.418 16.506 38.844 15.809 39.053 15.587 39.745 15.173 39.147 14.445 39.149 14.886 38.571 14.659 37.88"></polygon><polygon fill="#ffc800" points="14.688 37.909 15.349 38.14 15.914 37.727 15.899 38.427 16.467 38.837 15.796 39.039 15.581 39.706 15.182 39.13 14.482 39.132 14.906 38.575 14.688 37.909"></polygon><polygon fill="#fc0" points="14.716 37.938 15.352 38.161 15.896 37.763 15.881 38.437 16.427 38.831 15.782 39.025 15.576 39.666 15.192 39.112 14.518 39.114 14.927 38.578 14.716 37.938"></polygon><polygon fill="#ffd000" points="14.745 37.967 15.356 38.181 15.878 37.799 15.863 38.446 16.388 38.825 15.768 39.011 15.57 39.627 15.202 39.095 14.555 39.097 14.947 38.582 14.745 37.967"></polygon><polygon fill="#ffd300" points="14.774 37.997 15.359 38.201 15.86 37.835 15.846 38.455 16.348 38.818 15.754 38.997 15.565 39.587 15.211 39.077 14.591 39.079 14.967 38.586 14.774 37.997"></polygon><polygon fill="gold" points="14.802 38.026 15.362 38.222 15.841 37.872 15.828 38.465 16.309 38.812 15.741 38.983 15.559 39.548 15.221 39.06 14.628 39.062 14.987 38.59 14.802 38.026"></polygon><polygon fill="#ffdb00" points="14.831 38.055 15.366 38.242 15.823 37.908 15.81 38.474 16.27 38.806 15.727 38.969 15.554 39.508 15.231 39.042 14.664 39.044 15.008 38.593 14.831 38.055"></polygon><polygon fill="#ffe000" points="14.86 38.084 15.369 38.263 15.805 37.944 15.793 38.484 16.23 38.8 15.713 38.955 15.548 39.469 15.241 39.025 14.701 39.026 15.028 38.597 14.86 38.084"></polygon><polygon fill="#ffe400" points="14.888 38.113 15.372 38.283 15.786 37.98 15.775 38.493 16.191 38.793 15.699 38.941 15.542 39.429 15.25 39.007 14.737 39.009 15.048 38.601 14.888 38.113"></polygon><polygon fill="#ffe700" points="14.917 38.143 15.376 38.303 15.768 38.016 15.757 38.502 16.151 38.787 15.686 38.927 15.537 39.39 15.26 38.99 14.774 38.991 15.068 38.605 14.917 38.143"></polygon><polygon fill="#ffeb00" points="14.945 38.172 15.379 38.324 15.75 38.052 15.74 38.512 16.112 38.781 15.672 38.913 15.531 39.35 15.27 38.972 14.81 38.974 15.089 38.608 14.945 38.172"></polygon><g><polygon fill="#ff7e00" points="30.97 33.535 32.137 33.944 33.135 33.214 33.107 34.45 34.109 35.174 32.925 35.529 32.547 36.706 31.843 35.69 30.607 35.693 31.356 34.71 30.97 33.535"></polygon><polygon fill="#ff8100" points="30.999 33.565 32.14 33.964 33.117 33.25 33.089 34.459 34.07 35.167 32.912 35.515 32.541 36.666 31.853 35.672 30.643 35.676 31.376 34.714 30.999 33.565"></polygon><polygon fill="#ff8400" points="31.027 33.594 32.144 33.984 33.098 33.286 33.072 34.469 34.031 35.161 32.898 35.501 32.536 36.627 31.862 35.655 30.68 35.658 31.396 34.717 31.027 33.594"></polygon><polygon fill="#f80" points="31.056 33.623 32.147 34.005 33.08 33.323 33.054 34.478 33.991 35.155 32.884 35.487 32.53 36.587 31.872 35.637 30.716 35.641 31.417 34.721 31.056 33.623"></polygon><polygon fill="#ff8c00" points="31.085 33.652 32.15 34.025 33.062 33.359 33.036 34.487 33.952 35.148 32.87 35.473 32.525 36.548 31.882 35.62 30.753 35.623 31.437 34.725 31.085 33.652"></polygon><polygon fill="#ff9000" points="31.113 33.681 32.154 34.045 33.044 33.395 33.019 34.497 33.912 35.142 32.857 35.459 32.519 36.508 31.892 35.602 30.789 35.606 31.457 34.729 31.113 33.681"></polygon><polygon fill="#ff9300" points="31.142 33.711 32.157 34.066 33.025 33.431 33.001 34.506 33.873 35.136 32.843 35.445 32.514 36.469 31.901 35.585 30.826 35.588 31.477 34.732 31.142 33.711"></polygon><polygon fill="#ff9700" points="31.171 33.74 32.16 34.086 33.007 33.467 32.983 34.516 33.834 35.129 32.829 35.431 32.508 36.429 31.911 35.567 30.862 35.57 31.498 34.736 31.171 33.74"></polygon><polygon fill="#ff9b00" points="31.199 33.769 32.164 34.106 32.989 33.503 32.966 34.525 33.794 35.123 32.816 35.417 32.503 36.39 31.921 35.55 30.899 35.553 31.518 34.74 31.199 33.769"></polygon><polygon fill="#ff9e00" points="31.228 33.798 32.167 34.127 32.97 33.539 32.948 34.534 33.755 35.117 32.802 35.403 32.497 36.35 31.93 35.532 30.935 35.535 31.538 34.744 31.228 33.798"></polygon><polygon fill="#ffa200" points="31.256 33.827 32.17 34.147 32.952 33.576 32.93 34.544 33.715 35.11 32.788 35.389 32.492 36.311 31.94 35.515 30.972 35.518 31.559 34.747 31.256 33.827"></polygon><polygon fill="#ffa600" points="31.285 33.856 32.174 34.168 32.934 33.612 32.913 34.553 33.676 35.104 32.774 35.375 32.486 36.271 31.95 35.497 31.008 35.5 31.579 34.751 31.285 33.856"></polygon><polygon fill="#fa0" points="31.314 33.886 32.177 34.188 32.916 33.648 32.895 34.562 33.637 35.098 32.761 35.361 32.481 36.232 31.96 35.48 31.045 35.483 31.599 34.755 31.314 33.886"></polygon><polygon fill="#ffae00" points="31.342 33.915 32.181 34.208 32.897 33.684 32.877 34.572 33.597 35.092 32.747 35.347 32.475 36.192 31.969 35.462 31.081 35.465 31.619 34.759 31.342 33.915"></polygon><polygon fill="#ffb100" points="31.371 33.944 32.184 34.229 32.879 33.72 32.86 34.581 33.558 35.085 32.733 35.333 32.469 36.153 31.979 35.445 31.118 35.447 31.64 34.762 31.371 33.944"></polygon><polygon fill="#ffb500" points="31.4 33.973 32.187 34.249 32.861 33.756 32.842 34.591 33.519 35.079 32.719 35.319 32.464 36.113 31.989 35.427 31.154 35.43 31.66 34.766 31.4 33.973"></polygon><polygon fill="#ffb900" points="31.428 34.002 32.191 34.269 32.842 33.793 32.824 34.6 33.479 35.073 32.706 35.305 32.458 36.074 31.998 35.41 31.191 35.412 31.68 34.77 31.428 34.002"></polygon><polygon fill="#ffbc00" points="31.457 34.032 32.194 34.29 32.824 33.829 32.807 34.609 33.44 35.066 32.692 35.291 32.453 36.034 32.008 35.392 31.227 35.395 31.7 34.773 31.457 34.032"></polygon><polygon fill="#ffc000" points="31.486 34.061 32.197 34.31 32.806 33.865 32.789 34.619 33.4 35.06 32.678 35.277 32.447 35.995 32.018 35.375 31.264 35.377 31.721 34.777 31.486 34.061"></polygon><polygon fill="#ffc500" points="31.514 34.09 32.201 34.33 32.788 33.901 32.771 34.628 33.361 35.054 32.664 35.263 32.442 35.955 32.028 35.357 31.3 35.36 31.741 34.781 31.514 34.09"></polygon><polygon fill="#ffc800" points="31.543 34.119 32.204 34.351 32.769 33.937 32.754 34.637 33.322 35.047 32.651 35.249 32.436 35.916 32.037 35.34 31.337 35.342 31.761 34.785 31.543 34.119"></polygon><polygon fill="#fc0" points="31.571 34.148 32.207 34.371 32.751 33.973 32.736 34.647 33.282 35.041 32.637 35.235 32.431 35.876 32.047 35.322 31.373 35.324 31.782 34.788 31.571 34.148"></polygon><polygon fill="#ffd000" points="31.6 34.178 32.211 34.391 32.733 34.009 32.718 34.656 33.243 35.035 32.623 35.221 32.425 35.837 32.057 35.305 31.41 35.307 31.802 34.792 31.6 34.178"></polygon><polygon fill="#ffd300" points="31.629 34.207 32.214 34.412 32.715 34.046 32.701 34.666 33.203 35.029 32.609 35.207 32.42 35.797 32.066 35.287 31.446 35.289 31.822 34.796 31.629 34.207"></polygon><polygon fill="gold" points="31.657 34.236 32.217 34.432 32.696 34.082 32.683 34.675 33.164 35.022 32.596 35.193 32.414 35.758 32.076 35.27 31.483 35.272 31.842 34.8 31.657 34.236"></polygon><polygon fill="#ffdb00" points="31.686 34.265 32.221 34.452 32.678 34.118 32.665 34.684 33.125 35.016 32.582 35.179 32.409 35.718 32.086 35.252 31.519 35.254 31.863 34.803 31.686 34.265"></polygon><polygon fill="#ffe000" points="31.715 34.294 32.224 34.473 32.66 34.154 32.648 34.694 33.085 35.01 32.568 35.165 32.403 35.679 32.096 35.235 31.556 35.237 31.883 34.807 31.715 34.294"></polygon><polygon fill="#ffe400" points="31.743 34.323 32.227 34.493 32.641 34.19 32.63 34.703 33.046 35.003 32.554 35.151 32.397 35.639 32.105 35.217 31.592 35.219 31.903 34.811 31.743 34.323"></polygon><polygon fill="#ffe700" points="31.772 34.353 32.231 34.513 32.623 34.226 32.612 34.712 33.006 34.997 32.541 35.137 32.392 35.6 32.115 35.2 31.629 35.201 31.923 34.815 31.772 34.353"></polygon><polygon fill="#ffeb00" points="31.8 34.382 32.234 34.534 32.605 34.262 32.595 34.722 32.967 34.991 32.527 35.123 32.386 35.56 32.125 35.182 31.665 35.184 31.944 34.818 31.8 34.382"></polygon></g><g><polygon fill="#ff7e00" points="12.975 24.169 14.142 24.577 15.139 23.848 15.112 25.084 16.114 25.807 14.93 26.163 14.552 27.34 13.848 26.323 12.611 26.327 13.36 25.344 12.975 24.169"></polygon><polygon fill="#ff8100" points="13.003 24.198 14.145 24.598 15.121 23.884 15.094 25.093 16.075 25.801 14.916 26.149 14.546 27.3 13.857 26.306 12.648 26.31 13.381 25.347 13.003 24.198"></polygon><polygon fill="#ff8400" points="13.032 24.227 14.148 24.618 15.103 23.92 15.076 25.102 16.035 25.795 14.903 26.135 14.54 27.261 13.867 26.288 12.684 26.292 13.401 25.351 13.032 24.227"></polygon><polygon fill="#f80" points="13.061 24.257 14.152 24.639 15.085 23.956 15.059 25.112 15.996 25.788 14.889 26.121 14.535 27.221 13.877 26.271 12.721 26.274 13.421 25.355 13.061 24.257"></polygon><polygon fill="#ff8c00" points="13.089 24.286 14.155 24.659 15.066 23.992 15.041 25.121 15.956 25.782 14.875 26.107 14.529 27.182 13.886 26.253 12.757 26.257 13.441 25.359 13.089 24.286"></polygon><polygon fill="#ff9000" points="13.118 24.315 14.158 24.679 15.048 24.029 15.023 25.131 15.917 25.776 14.861 26.093 14.524 27.142 13.896 26.236 12.794 26.239 13.462 25.362 13.118 24.315"></polygon><polygon fill="#ff9300" points="13.147 24.344 14.162 24.7 15.03 24.065 15.006 25.14 15.878 25.769 14.848 26.079 14.518 27.103 13.906 26.218 12.83 26.222 13.482 25.366 13.147 24.344"></polygon><polygon fill="#ff9700" points="13.175 24.373 14.165 24.72 15.012 24.101 14.988 25.149 15.838 25.763 14.834 26.065 14.513 27.063 13.916 26.201 12.867 26.204 13.502 25.37 13.175 24.373"></polygon><polygon fill="#ff9b00" points="13.204 24.403 14.168 24.74 14.993 24.137 14.97 25.159 15.799 25.757 14.82 26.051 14.507 27.024 13.925 26.183 12.903 26.187 13.523 25.374 13.204 24.403"></polygon><polygon fill="#ff9e00" points="13.232 24.432 14.172 24.761 14.975 24.173 14.953 25.168 15.759 25.751 14.806 26.037 14.502 26.984 13.935 26.166 12.94 26.169 13.543 25.377 13.232 24.432"></polygon><polygon fill="#ffa200" points="13.261 24.461 14.175 24.781 14.957 24.209 14.935 25.177 15.72 25.744 14.793 26.023 14.496 26.945 13.945 26.148 12.976 26.151 13.563 25.381 13.261 24.461"></polygon><polygon fill="#ffa600" points="13.29 24.49 14.178 24.801 14.938 24.245 14.917 25.187 15.681 25.738 14.779 26.009 14.491 26.905 13.954 26.131 13.013 26.134 13.583 25.385 13.29 24.49"></polygon><polygon fill="#fa0" points="13.318 24.519 14.182 24.822 14.92 24.282 14.9 25.196 15.641 25.732 14.765 25.995 14.485 26.865 13.964 26.114 13.049 26.116 13.604 25.389 13.318 24.519"></polygon><polygon fill="#ffae00" points="13.347 24.549 14.185 24.842 14.902 24.318 14.882 25.206 15.602 25.725 14.751 25.981 14.48 26.826 13.974 26.096 13.086 26.099 13.624 25.392 13.347 24.549"></polygon><polygon fill="#ffb100" points="13.376 24.578 14.188 24.862 14.884 24.354 14.864 25.215 15.562 25.719 14.738 25.967 14.474 26.786 13.984 26.079 13.122 26.081 13.644 25.396 13.376 24.578"></polygon><polygon fill="#ffb500" points="13.404 24.607 14.192 24.883 14.865 24.39 14.847 25.224 15.523 25.713 14.724 25.953 14.468 26.747 13.993 26.061 13.159 26.064 13.664 25.4 13.404 24.607"></polygon><polygon fill="#ffb900" points="13.433 24.636 14.195 24.903 14.847 24.426 14.829 25.234 15.484 25.706 14.71 25.939 14.463 26.707 14.003 26.044 13.195 26.046 13.685 25.403 13.433 24.636"></polygon><polygon fill="#ffbc00" points="13.461 24.665 14.198 24.923 14.829 24.462 14.811 25.243 15.444 25.7 14.696 25.925 14.457 26.668 14.013 26.026 13.232 26.028 13.705 25.407 13.461 24.665"></polygon><polygon fill="#ffc000" points="13.49 24.695 14.202 24.944 14.811 24.499 14.794 25.252 15.405 25.694 14.683 25.911 14.452 26.628 14.022 26.009 13.268 26.011 13.725 25.411 13.49 24.695"></polygon><polygon fill="#ffc500" points="13.519 24.724 14.205 24.964 14.792 24.535 14.776 25.262 15.366 25.687 14.669 25.897 14.446 26.589 14.032 25.991 13.305 25.993 13.746 25.415 13.519 24.724"></polygon><polygon fill="#ffc800" points="13.547 24.753 14.209 24.984 14.774 24.571 14.758 25.271 15.326 25.681 14.655 25.883 14.441 26.549 14.042 25.974 13.341 25.976 13.766 25.418 13.547 24.753"></polygon><polygon fill="#fc0" points="13.576 24.782 14.212 25.005 14.756 24.607 14.741 25.281 15.287 25.675 14.641 25.869 14.435 26.51 14.052 25.956 13.378 25.958 13.786 25.422 13.576 24.782"></polygon><polygon fill="#ffd000" points="13.605 24.811 14.215 25.025 14.737 24.643 14.723 25.29 15.247 25.669 14.628 25.855 14.43 26.47 14.061 25.939 13.414 25.941 13.806 25.426 13.605 24.811"></polygon><polygon fill="#ffd300" points="13.633 24.84 14.219 25.045 14.719 24.679 14.705 25.299 15.208 25.662 14.614 25.841 14.424 26.431 14.071 25.921 13.451 25.923 13.827 25.43 13.633 24.84"></polygon><polygon fill="gold" points="13.662 24.87 14.222 25.066 14.701 24.715 14.687 25.309 15.169 25.656 14.6 25.827 14.419 26.391 14.081 25.904 13.487 25.905 13.847 25.433 13.662 24.87"></polygon><polygon fill="#ffdb00" points="13.69 24.899 14.225 25.086 14.683 24.752 14.67 25.318 15.129 25.65 14.587 25.813 14.413 26.352 14.091 25.886 13.524 25.888 13.867 25.437 13.69 24.899"></polygon><polygon fill="#ffe000" points="13.719 24.928 14.229 25.106 14.664 24.788 14.652 25.327 15.09 25.643 14.573 25.799 14.408 26.312 14.1 25.869 13.56 25.87 13.887 25.441 13.719 24.928"></polygon><polygon fill="#ffe400" points="13.748 24.957 14.232 25.127 14.646 24.824 14.634 25.337 15.05 25.637 14.559 25.785 14.402 26.273 14.11 25.851 13.597 25.853 13.908 25.445 13.748 24.957"></polygon><polygon fill="#ffe700" points="13.776 24.986 14.235 25.147 14.628 24.86 14.617 25.346 15.011 25.631 14.545 25.771 14.397 26.233 14.12 25.834 13.633 25.835 13.928 25.448 13.776 24.986"></polygon><polygon fill="#ffeb00" points="13.805 25.016 14.239 25.167 14.609 24.896 14.599 25.356 14.972 25.624 14.532 25.757 14.391 26.194 14.129 25.816 13.67 25.818 13.948 25.452 13.805 25.016"></polygon></g><path fill="url(#ReC8iBerVtjvWxkluS9tDd)" d="M3.454,25.958c-.951-3.048,6.6-5.039,5.874-7.371l-1.18-2.969c.727,2.332-6.474,5.369-5.524,8.418Z"></path><path fill="url(#ReC8iBerVtjvWxkluS9tDj)" d="M11.042,29.736c-.95-3.049-7.355-1.845-8.081-4.176l-.446-2.043c.727,2.332,7.131,1.128,8.082,4.177Z"></path><path fill="url(#ReC8iBerVtjvWxkluS9tDk)" d="M7.8,36.827c-1.012-3.029,4.109-5.537,3.335-7.853l-.811-1.925c.774,2.316-4.347,4.824-3.335,7.853Z"></path><path fill="url(#ReC8iBerVtjvWxkluS9tDe)" d="M44.291,29.807c.892-3.716-9.79-7.025-10.035-10.854l.1-2.711c1.106,3.034,11.809,7.842,10.425,11.518Z"></path><path fill="url(#ReC8iBerVtjvWxkluS9tDl)" d="M35.405,30.44c.892-3.716,8.243,2.044,8.937-.846l.491-2.047c-.694,2.89-8.044-2.87-8.936.846Z"></path><path fill="url(#ReC8iBerVtjvWxkluS9tDm)" d="M38.17,38.693c.641-2.995-3.66-4.849-2.713-8.469l.491-2.047c-.693,2.89,3.6,4.754,2.713,8.469Z"></path><path fill="url(#ReC8iBerVtjvWxkluS9tDn)" d="M28.812,45.944c.892-3.715,8.664-4.361,9.358-7.251l.491-2.047c-.7,2.51-9.464,1.717-10.353,5.63Z"></path><path fill="url(#ReC8iBerVtjvWxkluS9tDo)" d="M16.858,19.824a12.882,12.882,0,0,1-.567-3.211l.01.006c.415.236.684.383.813.456.176.1.426.243.736.442a14.887,14.887,0,0,0,1.249,3,17.169,17.169,0,0,0,.929,1.474,15.38,15.38,0,0,0,9.043,5.957l-1.916,1.4A15.3,15.3,0,0,1,16.858,19.824Z"></path><circle cx="3.754" cy="31.407" r="1.239" fill="url(#ReC8iBerVtjvWxkluS9tDf)"></circle><circle cx="14.867" cy="33.435" r=".916" fill="url(#ReC8iBerVtjvWxkluS9tDp)"></circle><circle cx="25.456" cy="33.074" r="1.239" fill="url(#ReC8iBerVtjvWxkluS9tDq)"></circle><circle cx="31.641" cy="25.345" r="1.239" fill="url(#ReC8iBerVtjvWxkluS9tDr)"></circle><circle cx="43.317" cy="36.038" r=".876" fill="url(#ReC8iBerVtjvWxkluS9tDs)"></circle><circle cx="16.328" cy="44.015" r=".824" fill="url(#ReC8iBerVtjvWxkluS9tDt)"></circle><circle cx="21.524" cy="39.835" r="1.142" fill="url(#ReC8iBerVtjvWxkluS9tDu)"></circle><circle cx="40.723" cy="41.857" r="1.142" fill="url(#ReC8iBerVtjvWxkluS9tDv)"></circle><circle cx="19.457" cy="29.569" r=".975" fill="url(#ReC8iBerVtjvWxkluS9tDw)"></circle><circle cx="9.377" cy="40.222" r=".982" fill="url(#ReC8iBerVtjvWxkluS9tDx)"></circle><circle cx="42.963" cy="21.505" r=".717" fill="url(#ReC8iBerVtjvWxkluS9tDy)"></circle></svg>