<svg xmlns="http://www.w3.org/2000/svg" xmlns:xlink="http://www.w3.org/1999/xlink" width="48" height="48" data-name="Слой 1" viewBox="0 0 48 48"><defs><linearGradient id="LB~rZlvTl53~U6jZBmjLLp" x1="26.436" x2="17.093" y1="4.16" y2="30.648" data-name="Безымянный градиент 180" gradientUnits="userSpaceOnUse"><stop offset=".299" stop-color="#8b5f3f"></stop><stop offset=".387" stop-color="#ff7e00"></stop><stop offset=".546" stop-color="#ffa000" stop-opacity=".69"></stop><stop offset=".709" stop-color="#ffc000" stop-opacity=".397"></stop><stop offset=".845" stop-color="gold" stop-opacity=".182"></stop><stop offset=".945" stop-color="#ffe600" stop-opacity=".05"></stop><stop offset="1" stop-color="#ffeb00" stop-opacity="0"></stop></linearGradient><linearGradient id="LB~rZlvTl53~U6jZBmjLLa" x1="37.779" x2="26.839" y1="43.03" y2="9.475" data-name="Безымянный градиент 59" gradientUnits="userSpaceOnUse"><stop offset="0" stop-color="#0097cd"></stop><stop offset="1" stop-color="#0062b6"></stop></linearGradient><linearGradient id="LB~rZlvTl53~U6jZBmjLLe" x1="36.794" x2="27.367" y1="27.605" y2="6.526" xlink:href="#LB~rZlvTl53~U6jZBmjLLa"></linearGradient><linearGradient id="LB~rZlvTl53~U6jZBmjLLf" x1="-1.447" x2="60.836" y1="17.034" y2="34.634" xlink:href="#LB~rZlvTl53~U6jZBmjLLb"></linearGradient><linearGradient id="LB~rZlvTl53~U6jZBmjLLg" x1="12.298" x2="46.406" y1="19.657" y2="-.013" data-name="Безымянный градиент 64" gradientUnits="userSpaceOnUse"><stop offset="0" stop-color="#15bae5"></stop><stop offset="1" stop-color="#0062b6"></stop></linearGradient><linearGradient id="LB~rZlvTl53~U6jZBmjLLh" x1="7.698" x2="13.281" y1="14.355" y2="7.272" xlink:href="#LB~rZlvTl53~U6jZBmjLLb"></linearGradient><linearGradient id="LB~rZlvTl53~U6jZBmjLLi" x1="20.219" x2="26.937" y1="19.993" y2="11.469" xlink:href="#LB~rZlvTl53~U6jZBmjLLb"></linearGradient><linearGradient id="LB~rZlvTl53~U6jZBmjLLj" x1="31.499" x2="38.834" y1="25.743" y2="-2.573" xlink:href="#LB~rZlvTl53~U6jZBmjLLb"></linearGradient><linearGradient id="LB~rZlvTl53~U6jZBmjLLk" x1="23.611" x2="24.172" y1="16.75" y2="42.98" data-name="Безымянный градиент 67" gradientUnits="userSpaceOnUse"><stop offset=".099" stop-color="#6edfff"></stop><stop offset=".267" stop-color="#54c2ee"></stop><stop offset=".593" stop-color="#278ed0"></stop><stop offset=".839" stop-color="#0b6ebd"></stop><stop offset=".975" stop-color="#0062b6"></stop></linearGradient><linearGradient id="LB~rZlvTl53~U6jZBmjLLl" x1="4.052" x2="47.286" y1="20.482" y2="2.684" data-name="Безымянный градиент 91" gradientUnits="userSpaceOnUse"><stop offset="0" stop-color="#ffeb00"></stop><stop offset=".279" stop-color="#fff287"></stop><stop offset=".301" stop-color="#fff27e"></stop><stop offset=".337" stop-color="#fff065"></stop><stop offset=".382" stop-color="#ffee3c"></stop><stop offset=".412" stop-color="#ffed1e"></stop><stop offset=".483" stop-color="#ffe81d"></stop><stop offset=".56" stop-color="#ffdb19"></stop><stop offset=".642" stop-color="#ffc513"></stop><stop offset=".726" stop-color="#ffa60b"></stop><stop offset=".811" stop-color="#ff7e00"></stop><stop offset=".812" stop-color="#ff7e00"></stop></linearGradient><linearGradient id="LB~rZlvTl53~U6jZBmjLLm" x1="11.835" x2="45.881" y1="5.081" y2="21.999" data-name="Безымянный градиент 93" gradientUnits="userSpaceOnUse"><stop offset="0" stop-color="#ffeb00"></stop><stop offset=".177" stop-color="#fff287"></stop><stop offset=".211" stop-color="#fff27e"></stop><stop offset=".269" stop-color="#fff065"></stop><stop offset=".342" stop-color="#ffee3c"></stop><stop offset=".389" stop-color="#ffed1e"></stop><stop offset=".47" stop-color="#ffe81d"></stop><stop offset=".56" stop-color="#ffdb19"></stop><stop offset=".653" stop-color="#ffc513"></stop><stop offset=".75" stop-color="#ffa60b"></stop><stop offset=".848" stop-color="#ff7e00"></stop><stop offset=".849" stop-color="#ff7e00"></stop></linearGradient><linearGradient id="LB~rZlvTl53~U6jZBmjLLn" x1="25.42" x2="27.629" y1="3.965" y2="36.701" data-name="Безымянный градиент 244" gradientUnits="userSpaceOnUse"><stop offset=".24" stop-color="#8b5f3f"></stop><stop offset=".262" stop-color="#966239"></stop><stop offset=".302" stop-color="#b36a29"></stop><stop offset=".354" stop-color="#e27610"></stop><stop offset=".383" stop-color="#ff7e00"></stop><stop offset=".543" stop-color="#ffa000" stop-opacity=".69"></stop><stop offset=".707" stop-color="#ffc000" stop-opacity=".397"></stop><stop offset=".844" stop-color="gold" stop-opacity=".182"></stop><stop offset=".945" stop-color="#ffe600" stop-opacity=".05"></stop><stop offset="1" stop-color="#ffeb00" stop-opacity="0"></stop></linearGradient><linearGradient id="LB~rZlvTl53~U6jZBmjLLo" x1="11.666" x2="14.46" y1="20.172" y2="14.584" data-name="Безымянный градиент 206" gradientUnits="userSpaceOnUse"><stop offset=".106" stop-color="#ffeb00"></stop><stop offset=".545" stop-color="#fff287"></stop><stop offset=".567" stop-color="#ffed7e"></stop><stop offset=".602" stop-color="#ffe165"></stop><stop offset=".647" stop-color="#ffcc3c"></stop><stop offset=".699" stop-color="#ffb004"></stop><stop offset=".703" stop-color="#ffae00"></stop></linearGradient><linearGradient id="LB~rZlvTl53~U6jZBmjLLb" x1="1.894" x2="41.191" y1="36.443" y2="17.424" data-name="Безымянный градиент 50" gradientUnits="userSpaceOnUse"><stop offset="0" stop-color="#6edfff"></stop><stop offset="1" stop-color="#0062b6"></stop></linearGradient><linearGradient id="LB~rZlvTl53~U6jZBmjLLc" x1="10.762" x2="21.468" y1="9.913" y2="11.154" data-name="Безымянный градиент 155" gradientTransform="rotate(.983 34.005 84.17)" gradientUnits="userSpaceOnUse"><stop offset=".078" stop-color="#ff7e00"></stop><stop offset=".146" stop-color="#ffae00"></stop><stop offset=".238" stop-color="#ffeb00"></stop><stop offset=".242" stop-color="#ffec11"></stop><stop offset=".251" stop-color="#ffee30"></stop><stop offset=".261" stop-color="#ffef4c"></stop><stop offset=".273" stop-color="#fff062"></stop><stop offset=".287" stop-color="#fff173"></stop><stop offset=".304" stop-color="#fff27e"></stop><stop offset=".327" stop-color="#fff285"></stop><stop offset=".393" stop-color="#fff287"></stop><stop offset=".414" stop-color="#fff17d"></stop><stop offset=".558" stop-color="#ffe83a"></stop><stop offset=".663" stop-color="#ffe210"></stop><stop offset=".716" stop-color="#ffe000"></stop><stop offset=".769" stop-color="#ffdb00"></stop><stop offset=".828" stop-color="#ffce00"></stop><stop offset=".892" stop-color="#ffb700"></stop><stop offset=".957" stop-color="#ff9700"></stop><stop offset="1" stop-color="#ff7e00"></stop></linearGradient><linearGradient id="LB~rZlvTl53~U6jZBmjLLq" x1="16.56" x2="17.599" y1="9.205" y2="18.273" data-name="Безымянный градиент 184" gradientTransform="rotate(.983 34.005 84.17)" gradientUnits="userSpaceOnUse"><stop offset=".372" stop-color="#8b5f3f"></stop><stop offset=".377" stop-color="#95613a"></stop><stop offset=".77" stop-color="#ff7e00"></stop><stop offset=".916" stop-color="#ffeb00"></stop></linearGradient><linearGradient id="LB~rZlvTl53~U6jZBmjLLd" x1="18.794" x2="24.117" y1="1.711" y2="9.009" data-name="Безымянный градиент 159" gradientTransform="translate(-2.035 1.587)" gradientUnits="userSpaceOnUse"><stop offset=".782" stop-color="#ffe000" stop-opacity="0"></stop><stop offset=".825" stop-color="#ffc700" stop-opacity=".259"></stop><stop offset=".872" stop-color="#ffad00" stop-opacity=".52"></stop><stop offset=".915" stop-color="#f90" stop-opacity=".727"></stop><stop offset=".952" stop-color="#ff8a00" stop-opacity=".875"></stop><stop offset=".981" stop-color="#ff8100" stop-opacity=".967"></stop><stop offset="1" stop-color="#ff7e00"></stop></linearGradient><linearGradient id="LB~rZlvTl53~U6jZBmjLLr" x1="112.996" x2="123.703" y1="4.506" y2="5.747" gradientTransform="scale(-1 1) rotate(7.3 7.853 -1170.1)" xlink:href="#LB~rZlvTl53~U6jZBmjLLc"></linearGradient><linearGradient id="LB~rZlvTl53~U6jZBmjLLs" x1="40.551" x2="38.738" y1="3.293" y2="25.513" data-name="Безымянный градиент 245" gradientTransform="rotate(-3.205 83.25 167.223)" gradientUnits="userSpaceOnUse"><stop offset=".24" stop-color="#8b5f3f"></stop><stop offset=".263" stop-color="#966239"></stop><stop offset=".302" stop-color="#b36a29"></stop><stop offset=".355" stop-color="#e27610"></stop><stop offset=".384" stop-color="#ff7e00"></stop><stop offset=".398" stop-color="#ffa000" stop-opacity=".69"></stop><stop offset=".413" stop-color="#ffc000" stop-opacity=".397"></stop><stop offset=".426" stop-color="gold" stop-opacity=".182"></stop><stop offset=".435" stop-color="#ffe600" stop-opacity=".05"></stop><stop offset=".44" stop-color="#ffeb00" stop-opacity="0"></stop></linearGradient><linearGradient id="LB~rZlvTl53~U6jZBmjLLt" x1="118.03" x2="123.353" y1="-2.022" y2="5.276" gradientTransform="scale(-1 1) rotate(7.3 7.853 -1170.1)" xlink:href="#LB~rZlvTl53~U6jZBmjLLd"></linearGradient><linearGradient id="LB~rZlvTl53~U6jZBmjLLy" x1="-4.222" x2="48.591" y1="24.824" y2="29.274" data-name="Безымянный градиент 92" gradientUnits="userSpaceOnUse"><stop offset="0" stop-color="#ffeb00"></stop><stop offset=".279" stop-color="#fff287"></stop><stop offset=".3" stop-color="#fff27e"></stop><stop offset=".333" stop-color="#fff065"></stop><stop offset=".376" stop-color="#ffee3c"></stop><stop offset=".404" stop-color="#ffed1e"></stop><stop offset=".482" stop-color="#ffe81d"></stop><stop offset=".569" stop-color="#ffdb19"></stop><stop offset=".66" stop-color="#ffc513"></stop><stop offset=".753" stop-color="#ffa60b"></stop><stop offset=".848" stop-color="#ff7e00"></stop><stop offset=".849" stop-color="#ff7e00"></stop></linearGradient><linearGradient id="LB~rZlvTl53~U6jZBmjLLv" x1="5.413" x2="32.216" y1="34.393" y2="34.294" data-name="Безымянный градиент 260" gradientUnits="userSpaceOnUse"><stop offset=".393" stop-color="#0062b6"></stop><stop offset=".408" stop-color="#1074c1" stop-opacity=".855"></stop><stop offset=".433" stop-color="#268dcf" stop-opacity=".655"></stop><stop offset=".462" stop-color="#3aa3dc" stop-opacity=".476"></stop><stop offset=".493" stop-color="#4ab6e7" stop-opacity=".327"></stop><stop offset=".528" stop-color="#57c5f0" stop-opacity=".206"></stop><stop offset=".57" stop-color="#62d1f7" stop-opacity=".113"></stop><stop offset=".621" stop-color="#69d9fc" stop-opacity=".048"></stop><stop offset=".692" stop-color="#6ddefe" stop-opacity=".01"></stop><stop offset=".889" stop-color="#6edfff" stop-opacity="0"></stop></linearGradient><linearGradient id="LB~rZlvTl53~U6jZBmjLLw" x1="36.113" x2="27.756" y1="33.236" y2="34.027" data-name="Безымянный градиент 74" gradientTransform="rotate(1.461 30.946 33.845)" gradientUnits="userSpaceOnUse"><stop offset=".387" stop-color="#0062b6" stop-opacity=".8"></stop><stop offset=".478" stop-color="#0466b8" stop-opacity=".774"></stop><stop offset=".582" stop-color="#0e72bf" stop-opacity=".699"></stop><stop offset=".691" stop-color="#1f85cb" stop-opacity=".575"></stop><stop offset=".805" stop-color="#37a0da" stop-opacity=".4"></stop><stop offset=".92" stop-color="#55c3ef" stop-opacity=".179"></stop><stop offset="1" stop-color="#6edfff" stop-opacity="0"></stop></linearGradient><linearGradient id="LB~rZlvTl53~U6jZBmjLLx" x1="-.887" x2="26.192" y1="5.617" y2="49.081" data-name="Безымянный градиент 94" gradientUnits="userSpaceOnUse"><stop offset="0" stop-color="#ffeb00"></stop><stop offset=".325" stop-color="#fff287"></stop><stop offset=".359" stop-color="#fff27e"></stop><stop offset=".415" stop-color="#fff065"></stop><stop offset=".486" stop-color="#ffee3c"></stop><stop offset=".533" stop-color="#ffed1e"></stop><stop offset=".588" stop-color="#ffe81d"></stop><stop offset=".65" stop-color="#ffdb19"></stop><stop offset=".714" stop-color="#ffc513"></stop><stop offset=".781" stop-color="#ffa60b"></stop><stop offset=".848" stop-color="#ff7e00"></stop><stop offset=".849" stop-color="#ff7e00"></stop></linearGradient><linearGradient id="LB~rZlvTl53~U6jZBmjLLz" x1="37.191" x2="33.6" y1="21.128" y2="13.051" data-name="Безымянный градиент 240" gradientUnits="userSpaceOnUse"><stop offset=".431" stop-color="#ffb400"></stop><stop offset=".509" stop-color="#ffb600"></stop><stop offset=".538" stop-color="#ffbd00"></stop><stop offset=".556" stop-color="#ffc700"></stop><stop offset=".588" stop-color="#ffb600"></stop><stop offset=".651" stop-color="#ff8a00"></stop><stop offset=".666" stop-color="#ff7e00"></stop></linearGradient><radialGradient id="LB~rZlvTl53~U6jZBmjLLu" cx="58.861" cy="-1.618" r="5.845" data-name="Безымянный градиент 129" gradientTransform="matrix(.15 .989 -.561 .085 14.243 -50.099)" gradientUnits="userSpaceOnUse"><stop offset=".174" stop-color="#fff287"></stop><stop offset=".237" stop-color="#fff07a"></stop><stop offset=".354" stop-color="#ffec57"></stop><stop offset=".511" stop-color="#ffe41f"></stop><stop offset=".591" stop-color="#ffe000"></stop><stop offset=".682" stop-color="#ffc300"></stop><stop offset=".82" stop-color="#ff9e00"></stop><stop offset=".931" stop-color="#ff8600"></stop><stop offset="1" stop-color="#ff7e00"></stop></radialGradient></defs><path fill="url(#LB~rZlvTl53~U6jZBmjLLa)" d="M42.543,34.258a1.475,1.475,0,0,1-.737,1.26l-16.78,9.737a3.6,3.6,0,0,1-.835.343,3.858,3.858,0,0,1-.408.084V22.193l19.234-8.674C42.945,20.4,42.634,27.368,42.543,34.258Z"></path><path fill="url(#LB~rZlvTl53~U6jZBmjLLb)" d="M23.783,45.682a3.363,3.363,0,0,1-.512-.1,3.284,3.284,0,0,1-.789-.344c-.444-.266-6.56-3.747-15.072-8.595a1.551,1.551,0,0,1-.784-1.289L5.88,14.681l17.9,7.512V45.682Z"></path><path fill="url(#LB~rZlvTl53~U6jZBmjLLe)" d="M43.946,18.97a1.072,1.072,0,0,1-.586.914L23.88,29.759a.806.806,0,0,1-.143-.064.89.89,0,0,1-.1-.07V21.639l20.324-9.352a.927.927,0,0,1,.079.1,1.025,1.025,0,0,1,.152.382Q44.069,15.872,43.946,18.97Z"></path><path fill="url(#LB~rZlvTl53~U6jZBmjLLf)" d="M23.783,29.808,5.69,20.8a1.41,1.41,0,0,1-.781-1.208l-.23-6a.46.46,0,0,1,.176-.3.433.433,0,0,1,.182-.076L23.772,21.59Z"></path><path fill="url(#LB~rZlvTl53~U6jZBmjLLg)" d="M43.827,12.162a.451.451,0,0,1,.045.165L23.635,21.639,4.918,13.171l.109-.106.243-.234L24.339,5.905a3.193,3.193,0,0,1,1.028-.162,2.477,2.477,0,0,1,.843.09l17.427,6.133A.455.455,0,0,1,43.827,12.162Z"></path><path fill="url(#LB~rZlvTl53~U6jZBmjLLh)" d="M10.71,15.173a.436.436,0,0,1-.247.508.407.407,0,0,1-.107.223.445.445,0,0,1-.366.119L4.681,13.638a.7.7,0,0,1-.007-.191.8.8,0,0,1,.074-.256.906.906,0,0,1,.643-.4Z"></path><path fill="url(#LB~rZlvTl53~U6jZBmjLLi)" d="M24.31,21.863a.561.561,0,0,1-.71.27l-7.44-3.34c-.01-.24-.01-.47-.02-.71.18-.08.36-.15.54-.23l7.36,3.3A.539.539,0,0,1,24.31,21.863Z"></path><path fill="url(#LB~rZlvTl53~U6jZBmjLLj)" d="M23.784,22.176a.537.537,0,0,1-.225-1.024l20.012-9.209a.78.78,0,0,1,.461.284.794.794,0,0,1,.143.612L24.007,22.127A.535.535,0,0,1,23.784,22.176Z"></path><path fill="url(#LB~rZlvTl53~U6jZBmjLLk)" d="M23.783,29.808a.687.687,0,0,1-.487-.242l-.016-.2-.034-7.607a.538.538,0,0,1,.534-.539h0a.537.537,0,0,1,.537.534q.014,3.884.026,7.767A.7.7,0,0,1,23.783,29.808Z"></path><path fill="url(#LB~rZlvTl53~U6jZBmjLLl)" d="M16.139,18.078,10.308,15.6a.324.324,0,0,1,.011-.143.356.356,0,0,1,.2-.21l20.548-7.7,5.356,1.886Z"></path><path fill="url(#LB~rZlvTl53~U6jZBmjLLm)" d="M13.727,9.76l5.331-1.937,19.075,6.589a.229.229,0,0,1,.155.191.219.219,0,0,1-.044.142l-6.378,2.992Z"></path><path fill="url(#LB~rZlvTl53~U6jZBmjLLn)" d="M13.727,9.76l5.331-1.937,19.151,6.595a.674.674,0,0,1-.007.225.627.627,0,0,1-.049.145l-6.287,2.949Z"></path><path fill="url(#LB~rZlvTl53~U6jZBmjLLo)" d="M16.306,18.16a.857.857,0,0,0-.125.261.885.885,0,0,0-.021.372l-6.17-2.77a.6.6,0,0,1,.036-.274.727.727,0,0,1,.142-.217,1.124,1.124,0,0,1,.19-.183,1.079,1.079,0,0,1,.352-.176l5.97,2.68a.744.744,0,0,0-.2.115A.732.732,0,0,0,16.306,18.16Z"></path><path fill="url(#LB~rZlvTl53~U6jZBmjLLp)" d="M36.42,9.423l-19.74,8.43-5.97-2.68q10.17-3.81,20.36-7.63C32.85,8.173,34.64,8.8,36.42,9.423Z"></path><path fill="url(#LB~rZlvTl53~U6jZBmjLLc)" d="M24.2,9.853c-.363-.436-5.125-6.064-8.234-5.587a3.291,3.291,0,0,0-1.328.516c-1.115.818-1.227,2.292-1.4,3.957-.565,5.5-1.058,6.207-.447,6.658.9.667,2.233-.588,5.929-1.4a22.944,22.944,0,0,1,4.445-.522"></path><path fill="url(#LB~rZlvTl53~U6jZBmjLLq)" d="M12.511,15.019a1.612,1.612,0,0,0,.313.48,2.008,2.008,0,0,0,.575.407.609.609,0,0,0,.1.047,2.784,2.784,0,0,0,.851.212c.08.011.154.016.235.021a.214.214,0,0,0,.062,0c.1,0,.206.009.307.007a.214.214,0,0,0,.062,0c.084-.006.171-.005.255-.011a13.327,13.327,0,0,0,1.631-.2c.216-.039.433-.078.643-.118.3-.059.634-.133,1.01-.237.126-.028.261-.066.4-.11A13.087,13.087,0,0,0,20.4,14.99a12.656,12.656,0,0,0,1.608-.793c.221-.114.447-.251.676-.4.162-.1.324-.21.487-.318.2-.131.4-.275.594-.425.1-.066.2-.144.3-.222.029-.019.054-.045.084-.069a.007.007,0,0,0,.008-.005l-.012,0a.887.887,0,0,1-.095.029c-.174.049-.348.091-.514.129-.554.145-1.085.264-1.58.365-.705.142-1.346.249-1.936.329a16.438,16.438,0,0,1-3.593.085,7.692,7.692,0,0,0-2-.013.42.42,0,0,0-.132.027,2.409,2.409,0,0,0-1.458.77A1.94,1.94,0,0,0,12.511,15.019Z"></path><path fill="url(#LB~rZlvTl53~U6jZBmjLLd)" d="M23.692,9.69a1.139,1.139,0,0,1,.151,1.346c-.775.779-4.568-1.525-4.423-1.9.037-.1.3.013,1.6.121C22.833,9.407,23.332,9.278,23.692,9.69Z"></path><path fill="url(#LB~rZlvTl53~U6jZBmjLLr)" d="M24.982,10.053c.313-.473,4.424-6.592,7.567-6.461a3.29,3.29,0,0,1,1.377.366c1.2.691,1.473,2.143,1.826,3.78,1.168,5.4,1.735,6.052,1.179,6.567-.824.763-2.285-.338-6.048-.733a22.943,22.943,0,0,0-4.475-.029"></path><path fill="url(#LB~rZlvTl53~U6jZBmjLLs)" d="M37.172,13.9a1.576,1.576,0,0,1-.257.511,2,2,0,0,1-.527.468.574.574,0,0,1-.09.058,2.784,2.784,0,0,1-.823.3c-.077.02-.151.033-.23.047a.186.186,0,0,1-.062.009c-.1.015-.2.031-.3.04a.216.216,0,0,1-.062.009c-.084,0-.171.014-.254.016a13.335,13.335,0,0,1-1.644-.021c-.219-.015-.439-.03-.653-.047-.3-.025-.644-.062-1.029-.123-.129-.014-.267-.038-.412-.065a13.067,13.067,0,0,1-1.5-.365,12.64,12.64,0,0,1-1.685-.611,7.626,7.626,0,0,1-.716-.323c-.172-.083-.345-.173-.519-.262-.213-.108-.424-.229-.637-.357-.1-.055-.211-.122-.318-.188a.883.883,0,0,1-.092-.059.006.006,0,0,1-.008,0l.011,0c.035.007.07.015.1.018.179.029.355.052.524.072.568.082,1.108.142,1.611.188.717.064,1.365.1,1.961.113a16.348,16.348,0,0,0,3.58-.312,7.723,7.723,0,0,1,1.984-.233.462.462,0,0,1,.134.012,2.411,2.411,0,0,1,1.534.605A1.919,1.919,0,0,1,37.172,13.9Z"></path><path fill="url(#LB~rZlvTl53~U6jZBmjLLt)" d="M25.291,10.077a1.138,1.138,0,0,0,.038,1.354c.876.663,4.31-2.148,4.114-2.5-.05-.091-.3.055-1.569.344C26.1,9.677,25.59,9.619,25.291,10.077Z"></path><path fill="url(#LB~rZlvTl53~U6jZBmjLLu)" d="M26.793,12.244a1.215,1.215,0,0,1-.213.936l-.012.014c-.111.116-.283.2-1.212.258-.2.023-.441.036-.721.044-.26.013-.474.018-.663.021-.84.011-1.032-.044-1.147-.123l-.034-.031a1.173,1.173,0,0,1-.37-.854,6.135,6.135,0,0,1-.006-1c0-.079.011-.17.013-.255.048-.948.085-1.757.564-2.062a.159.159,0,0,1,.044-.029.594.594,0,0,1,.407-.066,4.988,4.988,0,0,0,1.1.086,6.049,6.049,0,0,0,1.079-.167.458.458,0,0,1,.3.037c.007.006.013.006.02.012.535.259.644,1.12.761,2.234a.413.413,0,0,1,.011.085C26.753,11.725,26.787,12.009,26.793,12.244Z"></path><path fill="url(#LB~rZlvTl53~U6jZBmjLLv)" d="M15.539,25.818l2.621,1.191.2,15.874L15.385,41.1Q15.462,33.461,15.539,25.818Z"></path><path fill="url(#LB~rZlvTl53~U6jZBmjLLw)" d="M32.977,25.22l-2.56,1.259q-.138,7.835-.277,15.667L32.6,40.817Q32.792,33.019,32.977,25.22Z"></path><path fill="url(#LB~rZlvTl53~U6jZBmjLLx)" d="M16.85,42.023c-2.02-1.15-4.04-2.31-6.05-3.46Q10.4,27.3,9.99,16.023l6.17,2.77Q16.49,30.4,16.85,42.023Z"></path><path fill="url(#LB~rZlvTl53~U6jZBmjLLy)" d="M38.022,37.745l-6.589,3.792q.218-11.9.433-23.8l6.345-2.976c.032-.044.061-.062.089-.062.072,0,.17.117.288.6Z"></path><path fill="url(#LB~rZlvTl53~U6jZBmjLLz)" d="M31.751,17.862a.727.727,0,0,1,.075.254,2.184,2.184,0,0,1,.026.395l6.733-3.085c.007-.117.008-.218.007-.3a.994.994,0,0,0-.04-.35.647.647,0,0,0-.155-.236.627.627,0,0,0-.188-.124l-6.8,3.118a1.4,1.4,0,0,1,.174.134A.775.775,0,0,1,31.751,17.862Z"></path></svg>