<svg xmlns="http://www.w3.org/2000/svg" xmlns:xlink="http://www.w3.org/1999/xlink" data-name="Layer 1" viewBox="0 0 48 48"><defs><linearGradient id="a4RNEApCd16lJiB3cbL9So" x1="17.7" x2="20.92" y1="7.63" y2="10.39" gradientTransform="rotate(22.86 22.135 12.72)" xlink:href="#a4RNEApCd16lJiB3cbL9Sa"></linearGradient><linearGradient id="a4RNEApCd16lJiB3cbL9Sn" x1="19.54" x2="22.76" y1="5.49" y2="8.25" xlink:href="#a4RNEApCd16lJiB3cbL9Sa"></linearGradient><linearGradient id="a4RNEApCd16lJiB3cbL9Se" x1="19.82" x2="22.88" y1="8.18" y2="16.03" gradientUnits="userSpaceOnUse"><stop offset="0" stop-color="#fff" stop-opacity=".5"></stop><stop offset="1" stop-color="#fff" stop-opacity="0"></stop></linearGradient><linearGradient id="a4RNEApCd16lJiB3cbL9Sf" x1="2.07" x2="41.37" y1="29.94" y2="29.94" gradientUnits="userSpaceOnUse"><stop offset="0" stop-color="#f3997b"></stop><stop offset=".14" stop-color="#f08165"></stop><stop offset=".5" stop-color="#e94a31"></stop><stop offset=".75" stop-color="#d92f26"></stop><stop offset="1" stop-color="#ca181d"></stop></linearGradient><linearGradient id="a4RNEApCd16lJiB3cbL9Si" x1="4.08" x2="19.96" y1="32.33" y2="32.33" gradientTransform="rotate(1.8 13.241 32.265)" gradientUnits="userSpaceOnUse"><stop offset="0" stop-color="#fff" stop-opacity=".3"></stop><stop offset="1" stop-color="#fff" stop-opacity="0"></stop></linearGradient><linearGradient id="a4RNEApCd16lJiB3cbL9Sa" x1="15.69" x2="18.91" y1="9.94" y2="12.7" gradientTransform="translate(.14 -2.08)" gradientUnits="userSpaceOnUse"><stop offset="0" stop-color="#e03419"></stop><stop offset=".47" stop-color="#d01b11"></stop><stop offset="1" stop-color="#c10409"></stop></linearGradient><linearGradient id="a4RNEApCd16lJiB3cbL9Sj" x1="15.77" x2="18.99" y1="9.97" y2="12.73" gradientTransform="rotate(34.95 21.812 12.614)" xlink:href="#a4RNEApCd16lJiB3cbL9Sa"></linearGradient><linearGradient id="a4RNEApCd16lJiB3cbL9Sk" x1="17.99" x2="21.21" y1="7.38" y2="10.14" gradientTransform="rotate(34.95 21.812 12.614)" xlink:href="#a4RNEApCd16lJiB3cbL9Sa"></linearGradient><linearGradient id="a4RNEApCd16lJiB3cbL9Sl" x1="19.9" x2="23.12" y1="5.16" y2="7.92" gradientTransform="rotate(34.95 21.812 12.614)" xlink:href="#a4RNEApCd16lJiB3cbL9Sa"></linearGradient><linearGradient id="a4RNEApCd16lJiB3cbL9Sm" x1="16.64" x2="19.87" y1="8.87" y2="11.63" gradientTransform="rotate(22.86 22.135 12.72)" xlink:href="#a4RNEApCd16lJiB3cbL9Sa"></linearGradient><linearGradient id="a4RNEApCd16lJiB3cbL9Sc" x1="2.07" x2="46" y1="21.03" y2="21.03" gradientUnits="userSpaceOnUse"><stop offset="0" stop-color="#f0e6d0"></stop><stop offset="1" stop-color="#f6f0e5"></stop></linearGradient><linearGradient id="a4RNEApCd16lJiB3cbL9Sd" x1="40.98" x2="2.72" y1="24.4" y2="33.09" gradientUnits="userSpaceOnUse"><stop offset="0" stop-color="#ead8b7"></stop><stop offset="1" stop-color="#f0e6d0"></stop></linearGradient><linearGradient id="a4RNEApCd16lJiB3cbL9Sp" x1="19.98" x2="23.21" y1="4.97" y2="7.73" xlink:href="#a4RNEApCd16lJiB3cbL9Sa"></linearGradient><linearGradient id="a4RNEApCd16lJiB3cbL9Sq" x1="17.64" x2="20.86" y1="7.7" y2="10.47" gradientTransform="rotate(22.86 22.135 12.72)" xlink:href="#a4RNEApCd16lJiB3cbL9Sa"></linearGradient><linearGradient id="a4RNEApCd16lJiB3cbL9Sr" x1="16.38" x2="19.61" y1="9.17" y2="11.93" gradientTransform="rotate(22.86 22.135 12.72)" xlink:href="#a4RNEApCd16lJiB3cbL9Sa"></linearGradient><linearGradient id="a4RNEApCd16lJiB3cbL9Ss" x1="16.74" x2="19.97" y1="9.41" y2="12.17" gradientTransform="rotate(73.48 22.386 14.06)" xlink:href="#a4RNEApCd16lJiB3cbL9Sa"></linearGradient><linearGradient id="a4RNEApCd16lJiB3cbL9St" x1="16.58" x2="19.81" y1="9.6" y2="12.36" gradientTransform="rotate(73.48 22.386 14.06)" xlink:href="#a4RNEApCd16lJiB3cbL9Sa"></linearGradient><linearGradient id="a4RNEApCd16lJiB3cbL9Su" x1="17.63" x2="20.85" y1="8.38" y2="11.14" gradientTransform="rotate(73.48 22.386 14.06)" xlink:href="#a4RNEApCd16lJiB3cbL9Sa"></linearGradient><linearGradient id="a4RNEApCd16lJiB3cbL9Sv" x1="19.01" x2="22.23" y1="6.36" y2="9.12" gradientTransform="rotate(42.17 20.456 17.704)" xlink:href="#a4RNEApCd16lJiB3cbL9Sa"></linearGradient><linearGradient id="a4RNEApCd16lJiB3cbL9Sw" x1="17.8" x2="21.02" y1="8.18" y2="10.94" gradientTransform="rotate(73.48 22.386 14.06)" xlink:href="#a4RNEApCd16lJiB3cbL9Sa"></linearGradient><linearGradient id="a4RNEApCd16lJiB3cbL9Sx" x1="19.05" x2="22.27" y1="6.72" y2="9.48" gradientTransform="rotate(73.48 22.386 14.06)" xlink:href="#a4RNEApCd16lJiB3cbL9Sa"></linearGradient><linearGradient id="a4RNEApCd16lJiB3cbL9Sy" x1="17.92" x2="21.15" y1="8.03" y2="10.8" gradientTransform="rotate(73.48 22.386 14.06)" xlink:href="#a4RNEApCd16lJiB3cbL9Sa"></linearGradient><radialGradient id="a4RNEApCd16lJiB3cbL9Sb" cx="15.42" cy="27.96" r="19.62" gradientTransform="matrix(1 0 0 1.48 0 -13.41)" gradientUnits="userSpaceOnUse"><stop offset="0" stop-color="#e3bf5d"></stop><stop offset=".2" stop-color="#e2bc58"></stop><stop offset=".43" stop-color="#e0b24b"></stop><stop offset=".66" stop-color="#dda235"></stop><stop offset=".9" stop-color="#d98c15"></stop><stop offset="1" stop-color="#d78207"></stop></radialGradient><radialGradient id="a4RNEApCd16lJiB3cbL9Sg" cx="-1.89" cy="14.64" r="4.44" gradientTransform="matrix(1.49 0 0 .42 26.35 8.55)" gradientUnits="userSpaceOnUse"><stop offset="0" stop-color="#db9b5e"></stop><stop offset=".06" stop-color="#db9b5e" stop-opacity=".93"></stop><stop offset=".53" stop-color="#db9b5e" stop-opacity=".44"></stop><stop offset=".85" stop-color="#db9b5e" stop-opacity=".12"></stop><stop offset="1" stop-color="#db9b5e" stop-opacity="0"></stop></radialGradient><radialGradient id="a4RNEApCd16lJiB3cbL9Sh" cx="21.23" cy="7.5" r="7.85" gradientUnits="userSpaceOnUse"><stop offset="0" stop-color="#ea825f"></stop><stop offset=".14" stop-color="#e76b4b"></stop><stop offset=".5" stop-color="#e03419"></stop><stop offset=".74" stop-color="#d01b11"></stop><stop offset="1" stop-color="#c10409"></stop></radialGradient><radialGradient id="a4RNEApCd16lJiB3cbL9Sz" cx="21.77" cy="7.18" r="10.14" gradientTransform="matrix(.46 .89 -1.36 .7 21.64 -17.22)" gradientUnits="userSpaceOnUse"><stop offset="0" stop-color="#b81319" stop-opacity="0"></stop><stop offset=".37" stop-color="#b81319" stop-opacity=".01"></stop><stop offset=".51" stop-color="#b81319" stop-opacity=".05"></stop><stop offset=".62" stop-color="#b81319" stop-opacity=".12"></stop><stop offset=".7" stop-color="#b81319" stop-opacity=".21"></stop><stop offset=".78" stop-color="#b81319" stop-opacity=".33"></stop><stop offset=".85" stop-color="#b81319" stop-opacity=".48"></stop><stop offset=".91" stop-color="#b81319" stop-opacity=".66"></stop><stop offset=".96" stop-color="#b81319" stop-opacity=".87"></stop><stop offset=".99" stop-color="#b81319"></stop></radialGradient><radialGradient id="a4RNEApCd16lJiB3cbL9SA" cx="12.87" cy="-88.63" r="3.61" gradientTransform="matrix(0 .7 -1.11 0 -76.72 -.01)" gradientUnits="userSpaceOnUse"><stop offset="0" stop-color="#fff" stop-opacity=".7"></stop><stop offset=".06" stop-color="#fff" stop-opacity=".63"></stop><stop offset=".22" stop-color="#fff" stop-opacity=".44"></stop><stop offset=".39" stop-color="#fff" stop-opacity=".28"></stop><stop offset=".56" stop-color="#fff" stop-opacity=".16"></stop><stop offset=".71" stop-color="#fff" stop-opacity=".07"></stop><stop offset=".87" stop-color="#fff" stop-opacity=".02"></stop><stop offset="1" stop-color="#fff" stop-opacity="0"></stop></radialGradient></defs><path fill="url(#a4RNEApCd16lJiB3cbL9Sb)" d="M45,15.86V27c0,2-1.39,6.37-3.36,6.84l-1.11.27-.53.12L3.41,43a1.09,1.09,0,0,1-1.34-1.06V23.59a2.15,2.15,0,0,1,0-.27h0a1.81,1.81,0,0,1,.49-1L16,9a4.05,4.05,0,0,1,3.45-1.14L40.8,11a4,4,0,0,1,.85.21h0a4.94,4.94,0,0,1,2.12,1.43,5.1,5.1,0,0,1,.89,1.53A4.82,4.82,0,0,1,45,15.86Z"></path><g opacity=".3"><path fill="#fee19b" fill-rule="evenodd" d="M26.66,22.12c.51-.06.47.33.07.41C26.14,22.57,26.73,22.35,26.66,22.12Z"></path><path fill="#fee19b" fill-rule="evenodd" d="M31.72,24.15c.89-.1.73,1.1-.65,1C31,24.73,32.1,24.65,31.72,24.15Z"></path><path fill="#fee19b" fill-rule="evenodd" d="M30.36,23.36c.38-.08.35.19.47.33C30.44,23.77,30.47,23.51,30.36,23.36Z"></path><path fill="#fee19b" fill-rule="evenodd" d="M30.17,24.69c.38-.08.35.19.47.33C30.25,25.1,30.29,24.83,30.17,24.69Z"></path><path fill="#fee19b" fill-rule="evenodd" d="M30,23.86l.07.41-.79.17L29.24,24Z"></path><path fill="#fee19b" fill-rule="evenodd" d="M3.67,27.17l.07.41-.79.17-.07-.41Z"></path><path fill="#fee19b" fill-rule="evenodd" d="M28.77,26.07c1.36,0-1.45.85,0,0Z"></path><path fill="#fee19b" fill-rule="evenodd" d="M4.58,25.69c1.36,0-1.45.85,0,0Z"></path><path fill="#fee19b" fill-rule="evenodd" d="M39.19,21.9c1.24.05-.13,1-1,1.08C37.75,22,39.54,22.68,39.19,21.9Z"></path><path fill="#fee19b" fill-rule="evenodd" d="M30.17,27.93c-.15.48-.54.57-1.15.46L28.94,28A3.11,3.11,0,0,0,30.17,27.93Z"></path><path fill="#fee19b" fill-rule="evenodd" d="M25.78,27.55c-.32,1.32-2-.35,0,0Z"></path><path fill="#fee19b" fill-rule="evenodd" d="M40.36,17.79c1.44.75-1.6-.3,0,0Z"></path><path fill="#fee19b" fill-rule="evenodd" d="M26.68,24.75l.07.41c-.82-.23-1,.19-2,.42-.2-.45,1.1-.47,1.08-.88C26.19,24.68,26.29,24.83,26.68,24.75Z"></path><path fill="#fee19b" fill-rule="evenodd" d="M37.55,17.47c0,.53-1.33.35-1.58.34.06-.25.76-.31.72-.58C37.13,17.19,37,17.58,37.55,17.47Z"></path><path fill="#fee19b" fill-rule="evenodd" d="M39.59,17c1.44.75-1.6-.3,0,0Z"></path><path fill="#fee19b" fill-rule="evenodd" d="M23.58,29.32c.51-.06.47.33.07.41C23.06,29.77,23.66,29.55,23.58,29.32Z"></path><path fill="#fee19b" fill-rule="evenodd" d="M37.67,16.86c1.44.75-1.6-.3,0,0Z"></path><path fill="#fee19b" fill-rule="evenodd" d="M20.87,28.94c.26.4-.5.52-1.12.67,0-.18.36-.29.33-.5Z"></path><path fill="#fee19b" fill-rule="evenodd" d="M19.38,27.94c-.09.3-.64.47-.69.79C17.69,28.86,18.53,27.93,19.38,27.94Z"></path><path fill="#fee19b" fill-rule="evenodd" d="M10.63,29c0,.45-.7.72-1,1.08C8.56,30.1,9.75,29.12,10.63,29Z"></path><path fill="#fee19b" fill-rule="evenodd" d="M18.42,29.22c1.07.49-1.41-.22,0,0Z"></path><path fill="#fee19b" fill-rule="evenodd" d="M17,29.58c.39-.08.35.19.46.33C17,30,17.08,29.72,17,29.58Z"></path><path fill="#fee19b" fill-rule="evenodd" d="M4.28,26.6c.39-.08.35.19.46.33C4.36,27,4.39,26.74,4.28,26.6Z"></path><path fill="#fee19b" fill-rule="evenodd" d="M15,29.65c.38-.08.35.19.47.33C15.12,30.06,15.16,29.79,15,29.65Z"></path><path fill="#fee19b" fill-rule="evenodd" d="M13.57,28.25c.39-.08.35.19.47.33C13.65,28.66,13.69,28.39,13.57,28.25Z"></path><path fill="#fee19b" fill-rule="evenodd" d="M13.39,29.58c.39-.08.35.19.47.33C13.47,30,13.5,29.72,13.39,29.58Z"></path><path fill="#fee19b" fill-rule="evenodd" d="M13.92,30.32l.07.41-.79.17-.07-.41Z"></path><path fill="#fee19b" fill-rule="evenodd" d="M12.46,28.92c.47-.07.4.31.5.54C12.49,29.52,12.56,29.15,12.46,28.92Z"></path><path fill="#fee19b" fill-rule="evenodd" d="M12.45,31.28c1.6-.09-1.52.57,0,0Z"></path><path fill="#fee19b" fill-rule="evenodd" d="M11.49,28.05c.51-.06.47.33.07.41C11,28.5,11.57,28.28,11.49,28.05Z"></path><path fill="#fee19b" fill-rule="evenodd" d="M9.62,29.36c.51-.06.47.33.07.41C9.1,29.81,9.7,29.58,9.62,29.36Z"></path><path fill="#fee19b" fill-rule="evenodd" d="M35.11,18.42c1.21.17-1.43.89-1.84,1.25-.44,0-.34-.35-.86-.24C32.54,19.15,34.54,19.06,35.11,18.42Z"></path><path fill="#fee19b" fill-rule="evenodd" d="M27.69,26.94c-1.07-.34.94-1.44,0,0Z"></path><path fill="#fee19b" fill-rule="evenodd" d="M20.8,25c0,.4-1.28.42-1.08.87C18.88,26,20,25.05,20.8,25Z"></path><path fill="#fee19b" fill-rule="evenodd" d="M18.79,25.2c-.8.29-1-.63-.43-.12C19.14,24.67,19.16,24.68,18.79,25.2Z"></path><path fill="#fee19b" fill-rule="evenodd" d="M18.89,28.18c-.52-.21-1.68.11-1.72-.49C17.68,27.91,18.85,27.59,18.89,28.18Z"></path><path fill="#fee19b" fill-rule="evenodd" d="M7.62,27.19c-1.38.11.07-1.12-1.79-.9C5.11,26,8.24,26.08,7.62,27.19Z"></path><path fill="#fee19b" fill-rule="evenodd" d="M28.35,24.18c1.2.4-1.61.12,0,0Z"></path><path fill="#fee19b" fill-rule="evenodd" d="M28.51,22.53c.4.1,0,.48-.35.44S28.35,22.78,28.51,22.53Z"></path><path fill="#fee19b" fill-rule="evenodd" d="M32.33,16.91c1.2.4-1.61.12,0,0Z"></path><path fill="#fee19b" fill-rule="evenodd" d="M20.52,22.07c-1,1-2-.39,0,0Z"></path><path fill="#fee19b" fill-rule="evenodd" d="M23,26c.34,0,.06.3,0,.48C22.69,26.47,23,26.22,23,26Z"></path><path fill="#fee19b" fill-rule="evenodd" d="M25.81,19.21c.8,0-.46.8-.52,1.14C24.82,20.09,25,19.48,25.81,19.21Z"></path><path fill="#fee19b" fill-rule="evenodd" d="M16.26,24.41c1.2.4-1.61.12,0,0Z"></path><path fill="#fee19b" fill-rule="evenodd" d="M16.26,23.46c1,.69-1.43.2,0,0Z"></path><path fill="#fee19b" fill-rule="evenodd" d="M7.85,23.42c1,.69-1.43.2,0,0Z"></path><path fill="#fee19b" fill-rule="evenodd" d="M14,21.25c.76,0-.28,1.06-.88.63l.35-.44A.48.48,0,0,0,14,21.25Z"></path><path fill="#fee19b" fill-rule="evenodd" d="M9.39,25.21c.39.08,0,.43-.17.7C8.83,25.83,9.24,25.47,9.39,25.21Z"></path><path fill="#fee19b" fill-rule="evenodd" d="M13.08,25.52c-1.73.71-.66-.79,0,0Z"></path><path fill="#fee19b" fill-rule="evenodd" d="M27.57,28c1.2.4-1.61.12,0,0Z"></path><path fill="#fee19b" fill-rule="evenodd" d="M42,18.85c1.19.28-1.61.12,0,0Z"></path><path fill="#fee19b" fill-rule="evenodd" d="M32.18,24.38c.34,0,.06.3,0,.48C31.84,24.82,32.12,24.56,32.18,24.38Z"></path><path fill="#fee19b" fill-rule="evenodd" d="M37.68,21.79c.95.69-1.44.2,0,0Z"></path><path fill="#fee19b" fill-rule="evenodd" d="M14.15,30.76c-.91.94-1.88-.44,0,0Z"></path><path fill="#fee19b" fill-rule="evenodd" d="M26.53,26.66c1.2.4-1.61.12,0,0Z"></path><path fill="#fee19b" fill-rule="evenodd" d="M41.77,20c-.57-.7,1.88-.81,0,0Z"></path><path fill="#fee19b" fill-rule="evenodd" d="M39,17.71c.28.21-.09.29-.23.41C38.48,17.91,38.85,17.84,39,17.71Z"></path><path fill="#fee19b" fill-rule="evenodd" d="M28.27,24c.95.69-1.44.2,0,0Z"></path><path fill="#fee19b" fill-rule="evenodd" d="M37.41,23.72c.95.69-1.44.2,0,0Z"></path><path fill="#fee19b" fill-rule="evenodd" d="M31.61,26.6c-1.5,1.25-1-1,0,0Z"></path><path fill="#fee19b" fill-rule="evenodd" d="M21.91,28.13c.4.1,0,.47-.35.44S21.75,28.38,21.91,28.13Z"></path><path fill="#fee19b" fill-rule="evenodd" d="M8.55,25.18l-.35.44c-.84,0-.43-.38-.18-.73C8.27,25,8.19,25.15,8.55,25.18Z"></path><path fill="#fee19b" fill-rule="evenodd" d="M35.33,20.53c-.06.34-1.82.4-.88.63-1.92.5,0-1,0-1.43C35.74,19.65,34.35,20.51,35.33,20.53Z"></path><path fill="#fee19b" fill-rule="evenodd" d="M18.65,30.09c1.2.4-1.61.12,0,0Z"></path><path fill="#fee19b" fill-rule="evenodd" d="M6.57,24.16c1.07.49-1.41-.22,0,0Z"></path><path fill="#fee19b" fill-rule="evenodd" d="M5.11,24.52c.39-.08.35.19.46.33C5.19,24.93,5.22,24.66,5.11,24.52Z"></path><path fill="#fee19b" fill-rule="evenodd" d="M6.8,25c1.2.4-1.61.12,0,0Z"></path><path fill="#fee19b" fill-rule="evenodd" d="M15.87,23c-1.29.08-.82-.46-1.43-.62C15.12,21.9,16.81,22.38,15.87,23Z"></path><path fill="#fee19b" fill-rule="evenodd" d="M20.47,26.55c.77.69-2.25.35,0,0Z"></path><path fill="#fee19b" fill-rule="evenodd" d="M21.7,25c-1.73.71-.66-.79,0,0Z"></path><path fill="#fee19b" fill-rule="evenodd" d="M21.16,24.24c.92.44-1.82.41,0,0Z"></path><path fill="#fee19b" fill-rule="evenodd" d="M19.93,25.31c.4.1,0,.47-.35.44S19.77,25.56,19.93,25.31Z"></path><path fill="#fee19b" fill-rule="evenodd" d="M12.45,20.7c.34,0,.06.3,0,.48C12.11,21.13,12.39,20.87,12.45,20.7Z"></path><path fill="#fee19b" fill-rule="evenodd" d="M12.1,23.18c-.21.13-1.56.76-.7.88-.58.43-1.85-.12-2.13.74-.68-.25.74-1.4,1.59-1,.13-.31-.74-.27-1.25-.36C10.1,22.85,11.15,23.09,12.1,23.18Z"></path><path fill="#fee19b" fill-rule="evenodd" d="M13.75,30.18c.27.83-.77-.65,0,0Z"></path><path fill="#fee19b" fill-rule="evenodd" d="M15.5,27.49c.89.7-1.8.23-1.95,1C12.12,27.84,14.69,27.71,15.5,27.49Z"></path><path fill="#fee19b" fill-rule="evenodd" d="M15,20c.78.8-1.67.64,0,0Z"></path><path fill="#fee19b" fill-rule="evenodd" d="M11.62,30.92c.4.1,0,.47-.35.44S11.46,31.17,11.62,30.92Z"></path><path fill="#fee19b" fill-rule="evenodd" d="M14.25,26.65c1.2.4-1.61.12,0,0Z"></path><path fill="#fee19b" fill-rule="evenodd" d="M20,24.07c-.41-.67,2-1.18,0,0Z"></path><path fill="#fee19b" fill-rule="evenodd" d="M38.4,19.05c-.33.24-1.07.5-.89.15-.54,0-.73.52-1.06.85-.36-.19-.29-.54,0-1C37.23,19.27,37.54,18.77,38.4,19.05Z"></path><path fill="#fee19b" fill-rule="evenodd" d="M35.08,25.63c1.17.41-2.78,1.08-1.6.08A1.18,1.18,0,0,0,35.08,25.63Z"></path><path fill="#fee19b" fill-rule="evenodd" d="M36.07,24.41c-.38,1-2.48-.39-2.66.93-.94-.1-2.1-.12-2.31-.47C32.74,24.7,34.38,24.52,36.07,24.41Z"></path><path fill="#fee19b" fill-rule="evenodd" d="M34.32,22.71c-1.1-.94.35-.38.67-.91q-.93.85.58.8c-.33.31-1.12,0-1.42.34C33.78,22.85,34.13,22.69,34.32,22.71Z"></path><path fill="#fee19b" fill-rule="evenodd" d="M8.09,28.58c1.41-.6-.9.6,0,.48-.27.24-.45.09-.36,0a.48.48,0,0,0-.53.19C6.2,28.87,7.95,28.81,8.09,28.58Z"></path><path fill="#fee19b" fill-rule="evenodd" d="M38.53,16.68c1.6.39-1.59-.29,0,0Z"></path><path fill="#fee19b" fill-rule="evenodd" d="M7.13,27.95a25.33,25.33,0,0,0-3.19.64A4.87,4.87,0,0,1,7.13,27.95Z"></path><path fill="#fee19b" fill-rule="evenodd" d="M31.76,20.62c-.27-.66-1.86-.11-1.25-.84C31,20,32.43,20,31.76,20.62Z"></path><path fill="#fee19b" fill-rule="evenodd" d="M28.81,18.35c.57-.44,1.09.45,2,.43-.36.17-2.58.36-.88.63-.72.76-.95-.11-1.42.34C27.84,19.7,30.27,18.47,28.81,18.35Z"></path><path fill="#fee19b" fill-rule="evenodd" d="M23.49,26.62c.39.08,0,.43-.17.7-.21-.17-.42-.33-.71-.07C21.68,27,23.43,27,23.49,26.62Z"></path><path fill="#fee19b" fill-rule="evenodd" d="M26.68,23.28c-1,.19-1.7.73-2.84.67-.05-.25-.64-.31-.18-.73C24,24.16,25.15,23.17,26.68,23.28Z"></path><path fill="#fee19b" fill-rule="evenodd" d="M27.13,21.34c1.6-.1-1.52.57,0,0Z"></path><path fill="#fee19b" fill-rule="evenodd" d="M33.7,17.19c.89-.1.73,1.1-.65,1C33,17.77,34.08,17.69,33.7,17.19Z"></path><path fill="#fee19b" fill-rule="evenodd" d="M29.47,17.07c-.28.05-.36-.07-.41-.19h.3A.65.65,0,0,0,29.47,17.07Z"></path><path fill="#fee19b" fill-rule="evenodd" d="M24.4,22.14c.38-.08.35.19.47.33C24.48,22.55,24.52,22.28,24.4,22.14Z"></path><path fill="#fee19b" fill-rule="evenodd" d="M24.26,21.31l.07.41-.79.17-.07-.41Z"></path><path fill="#fee19b" fill-rule="evenodd" d="M18.62,21.9l0,.19a1.49,1.49,0,0,0-.45-.06Z"></path><path fill="#fee19b" fill-rule="evenodd" d="M13.12,25.63a.66.66,0,0,0-.19,0,5.63,5.63,0,0,0-.77,0h0l.28-.29h0c.32,0,.59.08.66.29A.2.2,0,0,1,13.12,25.63Z"></path><path fill="#fee19b" fill-rule="evenodd" d="M22.57,21.63c1.2.4-1.61.12,0,0Z"></path><path fill="#fee19b" fill-rule="evenodd" d="M16.24,18.81c.34,0,.06.3,0,.48C15.9,19.25,16.18,19,16.24,18.81Z"></path><path fill="#fee19b" fill-rule="evenodd" d="M30.22,21.88A.91.91,0,0,1,30,22a2,2,0,0,0-.58.35.44.44,0,0,1-.26-.42,1.51,1.51,0,0,1,.14-.39A8.94,8.94,0,0,1,30.22,21.88Z"></path><path fill="#fee19b" fill-rule="evenodd" d="M28.54,19.18c0,.21-.5.23-.82.32C27.76,19.29,28.23,19.27,28.54,19.18Z"></path><path fill="#fee19b" fill-rule="evenodd" d="M22.49,21.44c.95.69-1.44.2,0,0Z"></path><path fill="#fee19b" fill-rule="evenodd" d="M10.48,21.45c.95.69-1.44.2,0,0Z"></path><path fill="#fee19b" fill-rule="evenodd" d="M20.94,20.5c-1.5,1.25-1-1,0,0Z"></path><path fill="#fee19b" fill-rule="evenodd" d="M17.23,20.15c-.17.06-.18.11.16.2l-.44.09h0c-.73.09-.3-.42.09-.91.31-.15.64-.3,1-.42,0,.23-.34.6.31.63C18.24,19.94,17.51,20,17.23,20.15Z"></path><path fill="#fee19b" fill-rule="evenodd" d="M36.46,20.73c.77.69-2.25.35,0,0Z"></path><path fill="#fee19b" fill-rule="evenodd" d="M26.78,17.31c-.38,1-2.48-.39-2.66.93-.94-.1-2.1-.12-2.31-.47C23.45,17.6,25.09,17.42,26.78,17.31Z"></path><path fill="#fee19b" fill-rule="evenodd" d="M24.11,19c-1.1-.94.35-.38.67-.91q-.93.85.58.8c-.33.31-1.12,0-1.42.34C23.56,19.13,23.91,19,24.11,19Z"></path><path fill="#fee19b" fill-rule="evenodd" d="M20.69,17.8c.57-.44,1.09.45,2,.43-.36.17-2.58.36-.88.63-.72.76-.95-.11-1.42.34C19.72,19.15,22.15,17.92,20.69,17.8Z"></path><path fill="#fee19b" fill-rule="evenodd" d="M39.82,19.55c.39.08,0,.43-.17.7-.21-.17-.42-.33-.71-.07C38,20,39.76,19.89,39.82,19.55Z"></path><path fill="#fee19b" fill-rule="evenodd" d="M12.32,26.93c-.72.15-1.31.48-2,.6a3.52,3.52,0,0,1-.81.07h0c0-.19-.38-.27-.32-.5l.19-.15a.55.55,0,0,0,.4.32,2.21,2.21,0,0,0,.85-.1A5.28,5.28,0,0,1,12.32,26.93Z"></path><path fill="#fee19b" fill-rule="evenodd" d="M15.88,29.91c-.44.49-.67-.38-1.78-.18C15.15,29.2,15.49,29.52,15.88,29.91Z"></path><path fill="#fee19b" fill-rule="evenodd" d="M8.26,30.1c.47.1-1.2,1.07-2.13.74C6.8,30.54,7.59,30.4,8.26,30.1Z"></path></g><g opacity=".3"><path fill="#fee19b" fill-rule="evenodd" d="M26.7,29.91c.51-.06.47.33.07.41C26.18,30.35,26.78,30.13,26.7,29.91Z"></path><path fill="#fee19b" fill-rule="evenodd" d="M31.76,31.93c.89-.1.73,1.1-.65,1C31,32.51,32.14,32.43,31.76,31.93Z"></path><path fill="#fee19b" fill-rule="evenodd" d="M30.4,31.15c.38-.08.35.19.47.33C30.48,31.55,30.52,31.29,30.4,31.15Z"></path><path fill="#fee19b" fill-rule="evenodd" d="M30.22,32.47c.38-.08.35.19.47.33C30.29,32.88,30.33,32.61,30.22,32.47Z"></path><path fill="#fee19b" fill-rule="evenodd" d="M5.1,38.63l.07.41-.79.17-.07-.41Z"></path><path fill="#fee19b" fill-rule="evenodd" d="M4.55,39.85l.07.41-.79.17L3.76,40Z"></path><path fill="#fee19b" fill-rule="evenodd" d="M28.81,33.85c1.36,0-1.45.85,0,0Z"></path><path fill="#fee19b" fill-rule="evenodd" d="M3.33,39.3c1.36,0-1.45.85,0,0Z"></path><path fill="#fee19b" fill-rule="evenodd" d="M41.23,31c1.14.5-.48.88-1.37.63C39.86,30.57,41.28,31.87,41.23,31Z"></path><path fill="#fee19b" fill-rule="evenodd" d="M30.21,35.72c-.15.48-.54.57-1.15.46L29,35.76A3.11,3.11,0,0,0,30.21,35.72Z"></path><path fill="#fee19b" fill-rule="evenodd" d="M25.82,35.33c-.32,1.32-2-.35,0,0Z"></path><path fill="#fee19b" fill-rule="evenodd" d="M39.46,32.56c1.44.75-1.6-.3,0,0Z"></path><path fill="#fee19b" fill-rule="evenodd" d="M26.73,32.53l.07.41c-.82-.23-1,.19-2,.42-.2-.45,1.1-.47,1.08-.88C26.23,32.46,26.33,32.61,26.73,32.53Z"></path><path fill="#fee19b" fill-rule="evenodd" d="M37.59,25.25c0,.53-1.33.35-1.58.34.06-.25.76-.31.72-.58C37.17,25,37.07,25.36,37.59,25.25Z"></path><path fill="#fee19b" fill-rule="evenodd" d="M38.7,31.81c1.44.75-1.6-.3,0,0Z"></path><path fill="#fee19b" fill-rule="evenodd" d="M23.63,37.1c.51-.06.47.33.07.41C23.11,37.55,23.71,37.33,23.63,37.1Z"></path><path fill="#fee19b" fill-rule="evenodd" d="M37.71,24.65c1.44.75-1.6-.3,0,0Z"></path><path fill="#fee19b" fill-rule="evenodd" d="M20.92,36.73c.26.4-.5.52-1.12.67,0-.18.36-.29.33-.5Z"></path><path fill="#fee19b" fill-rule="evenodd" d="M19.42,35.72c-.09.3-.64.47-.69.79C17.73,36.64,18.57,35.71,19.42,35.72Z"></path><path fill="#fee19b" fill-rule="evenodd" d="M10.67,36.8c0,.45-.7.72-1,1.08C8.6,37.89,9.79,36.9,10.67,36.8Z"></path><path fill="#fee19b" fill-rule="evenodd" d="M18.46,37c1.07.49-1.41-.22,0,0Z"></path><path fill="#fee19b" fill-rule="evenodd" d="M17,37.36c.39-.08.35.19.46.33C17.08,37.77,17.12,37.5,17,37.36Z"></path><path fill="#fee19b" fill-rule="evenodd" d="M2.9,41.12c.39-.08.35.19.46.33C3,41.53,3,41.26,2.9,41.12Z"></path><path fill="#fee19b" fill-rule="evenodd" d="M15.08,37.43c.38-.08.35.19.47.33C15.16,37.84,15.2,37.58,15.08,37.43Z"></path><path fill="#fee19b" fill-rule="evenodd" d="M13.61,36c.39-.08.35.19.47.33C13.7,36.44,13.73,36.17,13.61,36Z"></path><path fill="#fee19b" fill-rule="evenodd" d="M13.43,37.36c.39-.08.35.19.47.33C13.51,37.77,13.55,37.5,13.43,37.36Z"></path><path fill="#fee19b" fill-rule="evenodd" d="M14,38.1l.07.41-.79.17-.07-.41Z"></path><path fill="#fee19b" fill-rule="evenodd" d="M12.5,36.7c.47-.07.4.31.5.54C12.53,37.3,12.6,36.93,12.5,36.7Z"></path><path fill="#fee19b" fill-rule="evenodd" d="M12.49,39.06c1.6-.09-1.52.57,0,0Z"></path><path fill="#fee19b" fill-rule="evenodd" d="M11.53,35.84c.51-.06.47.33.07.41C11,36.28,11.61,36.06,11.53,35.84Z"></path><path fill="#fee19b" fill-rule="evenodd" d="M9.66,37.14c.51-.06.47.33.07.41C9.14,37.59,9.74,37.37,9.66,37.14Z"></path><path fill="#fee19b" fill-rule="evenodd" d="M35.15,26.2c1.21.17-1.43.89-1.84,1.25-.44,0-.34-.35-.86-.24C32.58,26.93,34.58,26.84,35.15,26.2Z"></path><path fill="#fee19b" fill-rule="evenodd" d="M27.73,34.72c-1.07-.34.94-1.44,0,0Z"></path><path fill="#fee19b" fill-rule="evenodd" d="M20.84,32.77c0,.4-1.28.42-1.08.87C18.92,33.76,20.06,32.83,20.84,32.77Z"></path><path fill="#fee19b" fill-rule="evenodd" d="M18.83,33c-.8.29-1-.63-.43-.12C19.19,32.45,19.2,32.46,18.83,33Z"></path><path fill="#fee19b" fill-rule="evenodd" d="M18.93,36c-.52-.21-1.68.11-1.72-.49C17.72,35.69,18.89,35.37,18.93,36Z"></path><path fill="#fee19b" fill-rule="evenodd" d="M9.29,40.91c-1.38.11.07-1.12-1.79-.9C6.78,39.68,9.91,39.8,9.29,40.91Z"></path><path fill="#fee19b" fill-rule="evenodd" d="M28.39,32c1.2.4-1.61.12,0,0Z"></path><path fill="#fee19b" fill-rule="evenodd" d="M28.55,30.31c.4.1,0,.48-.35.44S28.39,30.56,28.55,30.31Z"></path><path fill="#fee19b" fill-rule="evenodd" d="M32.37,24.7c1.2.4-1.61.12,0,0Z"></path><path fill="#fee19b" fill-rule="evenodd" d="M20.56,29.85c-1,1-2-.39,0,0Z"></path><path fill="#fee19b" fill-rule="evenodd" d="M23.07,33.82c.34,0,.06.3,0,.48C22.74,34.26,23,34,23.07,33.82Z"></path><path fill="#fee19b" fill-rule="evenodd" d="M25.85,27c.8,0-.46.8-.52,1.14C24.87,27.87,25,27.27,25.85,27Z"></path><path fill="#fee19b" fill-rule="evenodd" d="M16.31,32.19c1.2.4-1.61.12,0,0Z"></path><path fill="#fee19b" fill-rule="evenodd" d="M16.3,31.24c1,.69-1.43.2,0,0Z"></path><path fill="#fee19b" fill-rule="evenodd" d="M7.9,31.2c1,.69-1.43.2,0,0Z"></path><path fill="#fee19b" fill-rule="evenodd" d="M14.08,29c.76,0-.28,1.06-.88.63l.35-.44A.48.48,0,0,0,14.08,29Z"></path><path fill="#fee19b" fill-rule="evenodd" d="M9.43,33c.39.08,0,.43-.17.7C8.87,33.61,9.28,33.26,9.43,33Z"></path><path fill="#fee19b" fill-rule="evenodd" d="M13.12,33.31c-1.73.71-.66-.79,0,0Z"></path><path fill="#fee19b" fill-rule="evenodd" d="M27.61,35.8c1.2.4-1.61.12,0,0Z"></path><path fill="#fee19b" fill-rule="evenodd" d="M42.05,26.63c1.19.28-1.61.12,0,0Z"></path><path fill="#fee19b" fill-rule="evenodd" d="M32.22,32.16c.34,0,.06.3,0,.48C31.88,32.6,32.16,32.34,32.22,32.16Z"></path><path fill="#fee19b" fill-rule="evenodd" d="M39,33.51c.95.69-1.44.2,0,0Z"></path><path fill="#fee19b" fill-rule="evenodd" d="M14.19,38.54c-.91.94-1.88-.44,0,0Z"></path><path fill="#fee19b" fill-rule="evenodd" d="M26.57,34.44c1.2.4-1.61.12,0,0Z"></path><path fill="#fee19b" fill-rule="evenodd" d="M37,33.37c-.57-.7,1.88-.81,0,0Z"></path><path fill="#fee19b" fill-rule="evenodd" d="M32.75,35.07c.28.21-.09.29-.23.41C32.25,35.27,32.62,35.19,32.75,35.07Z"></path><path fill="#fee19b" fill-rule="evenodd" d="M28.31,31.77c.95.69-1.44.2,0,0Z"></path><path fill="#fee19b" fill-rule="evenodd" d="M37.45,31.5c.95.69-1.44.2,0,0Z"></path><path fill="#fee19b" fill-rule="evenodd" d="M31.66,34.39c-1.5,1.25-1-1,0,0Z"></path><path fill="#fee19b" fill-rule="evenodd" d="M21.95,35.91c.4.1,0,.47-.35.44S21.79,36.16,21.95,35.91Z"></path><path fill="#fee19b" fill-rule="evenodd" d="M3.79,42.34l-.35.44c-.84,0-.43-.38-.18-.73C3.51,42.12,3.44,42.31,3.79,42.34Z"></path><path fill="#fee19b" fill-rule="evenodd" d="M35.37,28.32c-.06.34-1.82.4-.88.63-1.92.5,0-1,0-1.43C35.78,27.43,34.39,28.29,35.37,28.32Z"></path><path fill="#fee19b" fill-rule="evenodd" d="M18.7,37.87c1.2.4-1.61.12,0,0Z"></path><path fill="#fee19b" fill-rule="evenodd" d="M6.61,31.95c1.07.49-1.41-.22,0,0Z"></path><path fill="#fee19b" fill-rule="evenodd" d="M5.15,32.3c.39-.08.35.19.46.33C5.23,32.71,5.26,32.44,5.15,32.3Z"></path><path fill="#fee19b" fill-rule="evenodd" d="M6.84,32.81c1.2.4-1.61.12,0,0Z"></path><path fill="#fee19b" fill-rule="evenodd" d="M15.91,30.78c-1.29.08-.82-.46-1.43-.62C15.17,29.68,16.86,30.16,15.91,30.78Z"></path><path fill="#fee19b" fill-rule="evenodd" d="M20.51,34.34c.77.69-2.25.35,0,0Z"></path><path fill="#fee19b" fill-rule="evenodd" d="M21.74,32.79c-1.73.71-.66-.79,0,0Z"></path><path fill="#fee19b" fill-rule="evenodd" d="M21.2,32c.92.44-1.82.41,0,0Z"></path><path fill="#fee19b" fill-rule="evenodd" d="M20,33.09c.4.1,0,.47-.35.44S19.81,33.34,20,33.09Z"></path><path fill="#fee19b" fill-rule="evenodd" d="M12.49,28.48c.34,0,.06.3,0,.48C12.15,28.91,12.43,28.66,12.49,28.48Z"></path><path fill="#fee19b" fill-rule="evenodd" d="M12.14,31c-.21.13-1.56.76-.7.88-.58.43-1.85-.12-2.13.74-.68-.25.74-1.4,1.59-1,.13-.31-.74-.27-1.25-.36C10.14,30.63,11.19,30.87,12.14,31Z"></path><path fill="#fee19b" fill-rule="evenodd" d="M13.79,38c.27.83-.77-.65,0,0Z"></path><path fill="#fee19b" fill-rule="evenodd" d="M15.54,35.27c.89.7-1.8.23-1.95,1C12.16,35.62,14.73,35.49,15.54,35.27Z"></path><path fill="#fee19b" fill-rule="evenodd" d="M15.05,27.81c.78.8-1.67.64,0,0Z"></path><path fill="#fee19b" fill-rule="evenodd" d="M11.66,38.7c.4.1,0,.47-.35.44S11.5,39,11.66,38.7Z"></path><path fill="#fee19b" fill-rule="evenodd" d="M14.29,34.43c1.2.4-1.61.12,0,0Z"></path><path fill="#fee19b" fill-rule="evenodd" d="M20,31.85c-.41-.67,2-1.18,0,0Z"></path><path fill="#fee19b" fill-rule="evenodd" d="M37.89,33.88c-.33.24-1.07.5-.89.15-.54,0-.73.52-1.06.85-.36-.19-.29-.54,0-1C36.73,34.1,37,33.6,37.89,33.88Z"></path><path fill="#fee19b" fill-rule="evenodd" d="M35.12,33.41c1.17.41-2.78,1.08-1.6.08A1.18,1.18,0,0,0,35.12,33.41Z"></path><path fill="#fee19b" fill-rule="evenodd" d="M36.11,32.19c-.38,1-2.48-.39-2.66.93-.94-.1-2.1-.12-2.31-.47C32.78,32.48,34.42,32.3,36.11,32.19Z"></path><path fill="#fee19b" fill-rule="evenodd" d="M34.36,30.49c-1.1-.94.35-.38.67-.91q-.93.85.58.8c-.33.31-1.12,0-1.42.34C33.82,30.63,34.17,30.47,34.36,30.49Z"></path><path fill="#fee19b" fill-rule="evenodd" d="M8.13,36.36c1.41-.6-.9.6,0,.48-.27.24-.45.09-.36,0a.48.48,0,0,0-.53.19C6.24,36.65,8,36.59,8.13,36.36Z"></path><path fill="#fee19b" fill-rule="evenodd" d="M38.57,24.46c1.6.39-1.59-.29,0,0Z"></path><path fill="#fee19b" fill-rule="evenodd" d="M7.31,41.12a25.33,25.33,0,0,0-3.19.64A4.87,4.87,0,0,1,7.31,41.12Z"></path><path fill="#fee19b" fill-rule="evenodd" d="M31.81,28.4c-.27-.66-1.86-.11-1.25-.84C31,27.82,32.47,27.74,31.81,28.4Z"></path><path fill="#fee19b" fill-rule="evenodd" d="M28.86,26.13c.57-.44,1.09.45,2,.43-.36.17-2.58.36-.88.63-.72.76-.95-.11-1.42.34C27.88,27.49,30.31,26.26,28.86,26.13Z"></path><path fill="#fee19b" fill-rule="evenodd" d="M23.53,34.4c.39.08,0,.43-.17.7-.21-.17-.42-.33-.71-.07C21.72,34.8,23.47,34.73,23.53,34.4Z"></path><path fill="#fee19b" fill-rule="evenodd" d="M26.72,31.06c-1,.19-1.7.73-2.84.67-.05-.25-.64-.31-.18-.73C24.07,31.95,25.19,31,26.72,31.06Z"></path><path fill="#fee19b" fill-rule="evenodd" d="M27.17,29.12c1.6-.1-1.52.57,0,0Z"></path><path fill="#fee19b" fill-rule="evenodd" d="M33.74,25c.89-.1.73,1.1-.65,1C33,25.56,34.12,25.47,33.74,25Z"></path><path fill="#fee19b" fill-rule="evenodd" d="M29.52,24.85c-.28.05-.36-.07-.41-.19h.3A.65.65,0,0,0,29.52,24.85Z"></path><path fill="#fee19b" fill-rule="evenodd" d="M24.44,29.92c.38-.08.35.19.47.33C24.52,30.33,24.56,30.06,24.44,29.92Z"></path><path fill="#fee19b" fill-rule="evenodd" d="M24.3,29.09l.07.41-.79.17-.07-.41Z"></path><path fill="#fee19b" fill-rule="evenodd" d="M18.66,29.68l0,.19a1.49,1.49,0,0,0-.45-.06Z"></path><path fill="#fee19b" fill-rule="evenodd" d="M13.17,33.42a.66.66,0,0,0-.19,0,5.63,5.63,0,0,0-.77,0h0l.28-.29h0c.32,0,.59.08.66.29A.2.2,0,0,1,13.17,33.42Z"></path><path fill="#fee19b" fill-rule="evenodd" d="M22.61,29.41c1.2.4-1.61.12,0,0Z"></path><path fill="#fee19b" fill-rule="evenodd" d="M16.28,26.6c.34,0,.06.3,0,.48C15.94,27,16.22,26.77,16.28,26.6Z"></path><path fill="#fee19b" fill-rule="evenodd" d="M30.26,29.66a.91.91,0,0,1-.2.14,2,2,0,0,0-.58.35.44.44,0,0,1-.26-.42,1.51,1.51,0,0,1,.14-.39A8.94,8.94,0,0,1,30.26,29.66Z"></path><path fill="#fee19b" fill-rule="evenodd" d="M28.58,27c0,.21-.5.23-.82.32C27.8,27.07,28.27,27.05,28.58,27Z"></path><path fill="#fee19b" fill-rule="evenodd" d="M22.54,29.22c.95.69-1.44.2,0,0Z"></path><path fill="#fee19b" fill-rule="evenodd" d="M10.52,29.23c.95.69-1.44.2,0,0Z"></path><path fill="#fee19b" fill-rule="evenodd" d="M21,28.28c-1.5,1.25-1-1,0,0Z"></path><path fill="#fee19b" fill-rule="evenodd" d="M17.27,27.93c-.17.06-.18.11.16.2l-.44.09h0c-.73.09-.3-.42.09-.91.31-.15.64-.3,1-.42,0,.23-.34.6.31.63C18.28,27.72,17.55,27.83,17.27,27.93Z"></path><path fill="#fee19b" fill-rule="evenodd" d="M36.5,28.51c.77.69-2.25.35,0,0Z"></path><path fill="#fee19b" fill-rule="evenodd" d="M26.82,25.09c-.38,1-2.48-.39-2.66.93-.94-.1-2.1-.12-2.31-.47C23.49,25.38,25.13,25.2,26.82,25.09Z"></path><path fill="#fee19b" fill-rule="evenodd" d="M24.15,26.77c-1.1-.94.35-.38.67-.91q-.93.85.58.8c-.33.31-1.12,0-1.42.34C23.61,26.91,24,26.75,24.15,26.77Z"></path><path fill="#fee19b" fill-rule="evenodd" d="M20.74,25.58c.57-.44,1.09.45,2,.43-.36.17-2.58.36-.88.63-.72.76-.95-.11-1.42.34C19.76,26.93,22.19,25.7,20.74,25.58Z"></path><path fill="#fee19b" fill-rule="evenodd" d="M39.86,27.34c.39.08,0,.43-.17.7-.21-.17-.42-.33-.71-.07C38,27.74,39.8,27.67,39.86,27.34Z"></path><path fill="#fee19b" fill-rule="evenodd" d="M12.36,34.71c-.72.15-1.31.48-2,.6a3.52,3.52,0,0,1-.81.07h0c0-.19-.38-.27-.32-.5l.19-.15a.55.55,0,0,0,.4.32,2.21,2.21,0,0,0,.85-.1A5.28,5.28,0,0,1,12.36,34.71Z"></path><path fill="#fee19b" fill-rule="evenodd" d="M15.92,37.69c-.44.49-.67-.38-1.78-.18C15.19,37,15.53,37.3,15.92,37.69Z"></path><path fill="#fee19b" fill-rule="evenodd" d="M8.3,37.88c.47.1-1.2,1.07-2.13.74C6.84,38.32,7.63,38.18,8.3,37.88Z"></path></g><path fill="url(#a4RNEApCd16lJiB3cbL9Sc)" d="M45.61,16.95c.64,2.66.31,8.46.31,8.46,0,1.83-.93,6.85-3.43,8.15a3.26,3.26,0,0,1-.87.33l-1.11.27-.53.12a38.77,38.77,0,0,0,1.51-10A30.31,30.31,0,0,0,41,19a1.94,1.94,0,0,0-2.36-1.47L4.12,25.81a1.55,1.55,0,0,1-2-.56,1.14,1.14,0,0,1,0-.17.19.19,0,0,1,0-.07c0-.31,0-1.27,0-1.39.05-1.24,1.29-2,2.08-2.81.66-.65,1.32-1.33,2-2l4.31-4.31L16,9a4.05,4.05,0,0,1,3.45-1.14s16.6,2,22,3.25a5.12,5.12,0,0,1,2.38,1.56,5.71,5.71,0,0,1,.51.72A12.5,12.5,0,0,1,45.61,16.95Z"></path><path fill="url(#a4RNEApCd16lJiB3cbL9Sd)" d="M43.57,16.69c-.81-2.14-3.9-1.52-3.9-1.52L12.29,21.81C5.9,23.35,2.66,24.74,2.07,23.59c0,.49,0,1.46,0,1.48a1.14,1.14,0,0,0,0,.17,1.55,1.55,0,0,0,2,.56L38.6,17.56A1.94,1.94,0,0,1,41,19c.1.49.18,1,.26,1.6a.53.53,0,0,1-.41.58L3.38,29.43c-.71.14-1.31.14-1.31-.56V33h0v5c0,.72.61.69,1.34.55l.7-.15,36.33-8a.28.28,0,0,1,.34.33A32.37,32.37,0,0,1,40,34.27l.53-.12,1.11-.27a3.26,3.26,0,0,0,.87-.33C45.36,29.21,44.38,18.85,43.57,16.69Z"></path><path fill="url(#a4RNEApCd16lJiB3cbL9Se)" d="M4.33,22q5.14-5.65,10.55-11.05A8.05,8.05,0,0,1,17,9.23a6.33,6.33,0,0,1,2.65-.51,28.13,28.13,0,0,1,3.22.21,115.8,115.8,0,0,1,18,2.82,3.21,3.21,0,0,1,1.16.48,1.13,1.13,0,0,1,.47,1.1c-.12.53-.7.8-1.22.95a22.09,22.09,0,0,1-3.9.53,36.56,36.56,0,0,0-7.77,1.59c-2.92.94-5.74,2.25-8.75,2.84-1.26.25-2.54.37-3.8.6-2.23.41-4.36,1.17-6.55,1.74C8.59,22.1,6.31,22.65,4.33,22Z"></path><path fill="url(#a4RNEApCd16lJiB3cbL9Sf)" d="M41.37,24.7c0,.74,0,1.46-.06,2.16a.26.26,0,0,1-.21.24l-7.5,1.64L4.12,35.22l-.7.15c-.73.14-1.34.16-1.34-.55V32.14c0,.7.59.69,1.31.56l30-6.6L41,24.44A.26.26,0,0,1,41.37,24.7Z"></path><ellipse cx="23.53" cy="14.64" fill="url(#a4RNEApCd16lJiB3cbL9Sg)" rx="6.63" ry="1.88"></ellipse><path fill="url(#a4RNEApCd16lJiB3cbL9Sh)" d="M26.42,7.08C23.6,4.43,21.5,5.24,20,6.8c-2.9,3.1-1.93,7.1-.91,8.05s5.07,1.66,8-1.43C28.57,11.86,29.23,9.72,26.42,7.08Z"></path><path fill="url(#a4RNEApCd16lJiB3cbL9Si)" d="M19.15,30.24c.32-.07.75-.07.84.24s-.32.57-.65.65C15.13,32.25,10.73,32.64,6.58,34c-.47.15-2.57.92-2.55-.16,0-.73,2.41-.87,3-1l7.86-1.67Z"></path><g opacity=".5"><path fill="url(#a4RNEApCd16lJiB3cbL9Sa)" d="M19.14,11.64c-.24,0-.46.58-.48.82a.43.43,0,0,0,.87,0C19.54,12.26,19.38,11.65,19.14,11.64Zm-.06,1.1a.26.26,0,0,1-.25-.28c0-.15.15-.66.3-.66s.24.54.23.69A.26.26,0,0,1,19.08,12.74Z"></path><path fill="url(#a4RNEApCd16lJiB3cbL9Sj)" d="M20.55,13.34c-.2-.14-.7.25-.84.44a.43.43,0,0,0,.71.5C20.56,14.08,20.75,13.47,20.55,13.34Zm-.63.91a.26.26,0,0,1-.07-.37c.08-.12.48-.48.6-.4s-.09.58-.17.7A.26.26,0,0,1,19.92,14.24Z"></path><path fill="url(#a4RNEApCd16lJiB3cbL9Sk)" d="M23.39,10.67c-.2-.14-.7.25-.84.44a.43.43,0,0,0,.71.5C23.4,11.41,23.58,10.81,23.39,10.67Zm-.63.91a.26.26,0,0,1-.07-.37c.08-.12.48-.48.6-.4s-.09.58-.17.7A.26.26,0,0,1,22.75,11.58Z"></path><path fill="url(#a4RNEApCd16lJiB3cbL9Sl)" d="M25.77,8.18c-.2-.14-.7.25-.84.44a.43.43,0,0,0,.71.5C25.78,8.92,26,8.32,25.77,8.18Zm-.63.91a.26.26,0,0,1-.07-.37c.08-.12.48-.48.6-.4s-.09.58-.17.7A.26.26,0,0,1,25.14,9.09Z"></path><path fill="url(#a4RNEApCd16lJiB3cbL9Sm)" d="M21.15,11c-.22-.09-.63.39-.73.61a.43.43,0,0,0,.8.34C21.31,11.76,21.37,11.13,21.15,11Zm-.43,1a.26.26,0,0,1-.14-.35c.06-.13.37-.57.5-.52s0,.59,0,.72A.26.26,0,0,1,20.72,12.05Z"></path><path fill="url(#a4RNEApCd16lJiB3cbL9Sn)" d="M23.92,8.41c-.2-.13-.69.28-.82.48a.43.43,0,0,0,.73.46C24,9.15,24.12,8.54,23.92,8.41Zm-.59.93A.26.26,0,0,1,23.25,9c.08-.12.46-.51.58-.43s-.06.59-.14.71A.26.26,0,0,1,23.33,9.35Z"></path><path fill="url(#a4RNEApCd16lJiB3cbL9So)" d="M21.87,8.85c-.22-.09-.63.39-.73.61a.43.43,0,0,0,.8.34C22,9.57,22.09,8.94,21.87,8.85Zm-.43,1a.26.26,0,0,1-.14-.35c.06-.13.37-.57.5-.52s0,.59,0,.72A.26.26,0,0,1,21.44,9.87Z"></path><path fill="url(#a4RNEApCd16lJiB3cbL9Sp)" d="M23,6.7c-.19-.15-.71.21-.86.4a.43.43,0,0,0,.69.53C23,7.44,23.17,6.84,23,6.7Zm-.67.88a.26.26,0,0,1,0-.37c.09-.12.5-.46.62-.37s-.11.58-.2.69A.26.26,0,0,1,22.31,7.57Z"></path><path fill="url(#a4RNEApCd16lJiB3cbL9Sq)" d="M20.94,7.2c-.22-.09-.63.39-.73.61a.43.43,0,0,0,.8.34C21.1,7.92,21.16,7.29,20.94,7.2Zm-.43,1a.26.26,0,0,1-.14-.35c.06-.13.37-.57.5-.52s0,.59,0,.72A.26.26,0,0,1,20.51,8.22Z"></path><path fill="url(#a4RNEApCd16lJiB3cbL9Sr)" d="M19.83,9.3c-.22-.09-.63.39-.73.61a.43.43,0,0,0,.8.34C20,10,20,9.4,19.83,9.3Zm-.43,1a.26.26,0,0,1-.14-.35c.06-.13.37-.57.5-.52s0,.59,0,.72A.26.26,0,0,1,19.4,10.32Z"></path><path fill="url(#a4RNEApCd16lJiB3cbL9Ss)" d="M22.54,14.64c-.07-.23-.7-.24-.93-.18a.43.43,0,0,0,.25.83C22.08,15.23,22.61,14.87,22.54,14.64ZM21.48,15a.26.26,0,0,1,.18-.33c.14,0,.68-.08.72.06s-.43.4-.57.44A.26.26,0,0,1,21.48,15Z"></path><path fill="url(#a4RNEApCd16lJiB3cbL9St)" d="M23,13.08c-.07-.23-.7-.24-.93-.18a.43.43,0,0,0,.25.83C22.51,13.66,23,13.31,23,13.08Zm-1.06.31a.26.26,0,0,1,.18-.33c.14,0,.68-.08.72.06s-.43.4-.57.44A.26.26,0,0,1,21.91,13.39Z"></path><path fill="url(#a4RNEApCd16lJiB3cbL9Su)" d="M26,10.28c-.07-.23-.7-.24-.93-.18a.43.43,0,0,0,.25.83C25.52,10.87,26,10.51,26,10.28Zm-1.06.31a.26.26,0,0,1,.18-.33c.14,0,.68-.08.72.06s-.43.4-.57.44A.26.26,0,0,1,24.91,10.6Z"></path><path fill="url(#a4RNEApCd16lJiB3cbL9Sv)" d="M27.78,10.35c-.18-.16-.73.16-.89.33a.43.43,0,0,0,.64.58C27.69,11.09,28,10.51,27.78,10.35Zm-.74.82a.26.26,0,0,1,0-.37c.1-.11.54-.42.65-.32s-.16.57-.26.67A.26.26,0,0,1,27,11.17Z"></path><path fill="url(#a4RNEApCd16lJiB3cbL9Sw)" d="M25.39,12.24c-.07-.23-.7-.24-.93-.18a.43.43,0,0,0,.25.83C24.93,12.83,25.46,12.47,25.39,12.24Zm-1.06.31a.26.26,0,0,1,.18-.33c.14,0,.68-.08.72.06s-.43.4-.57.44A.26.26,0,0,1,24.33,12.55Z"></path><path fill="url(#a4RNEApCd16lJiB3cbL9Sx)" d="M27.4,12.45c-.07-.23-.7-.24-.93-.18a.43.43,0,0,0,.25.83C26.94,13,27.46,12.68,27.4,12.45Zm-1.06.31a.26.26,0,0,1,.18-.33c.14,0,.68-.08.72.06s-.43.4-.57.44A.26.26,0,0,1,26.34,12.77Z"></path><path fill="url(#a4RNEApCd16lJiB3cbL9Sy)" d="M24.77,14.1c-.07-.23-.7-.24-.93-.18a.43.43,0,0,0,.25.83C24.31,14.68,24.83,14.33,24.77,14.1Zm-1.06.31a.26.26,0,0,1,.18-.33c.14,0,.68-.08.72.06s-.43.4-.57.44A.26.26,0,0,1,23.71,14.41Z"></path></g><path fill="url(#a4RNEApCd16lJiB3cbL9Sz)" d="M26.42,7.08C23.6,4.43,21.5,5.24,20,6.8c-2.9,3.1-1.93,7.1-.91,8.05s5.07,1.66,8-1.43C28.57,11.86,29.23,9.72,26.42,7.08Z"></path><ellipse cx="21.4" cy="8.97" fill="url(#a4RNEApCd16lJiB3cbL9SA)" opacity=".6" rx="4.38" ry="2.26" transform="rotate(-51.18 21.397 8.976)"></ellipse></svg>